<?xml version="1.0" encoding="utf-8"?>
<!DOCTYPE svg PUBLIC "-//W3C//DTD SVG 1.0//EN" "http://www.w3.org/TR/2001/REC-SVG-20010904/DTD/svg10.dtd">
<svg color-interpolation="auto" color-rendering="auto" fill="black" fill-opacity="1" font-family="'Dialog'" font-size="12px" font-style="normal" font-weight="normal" height="850" image-rendering="auto" shape-rendering="auto" stroke="black" stroke-dasharray="none" stroke-dashoffset="0" stroke-linecap="square" stroke-linejoin="miter" stroke-miterlimit="10" stroke-opacity="1" stroke-width="1" text-rendering="auto" viewBox="10 -20 1410 850" width="1410" xmlns="http://www.w3.org/2000/svg" xmlns:xlink="http://www.w3.org/1999/xlink"><!--Generated by the Batik Graphics2D SVG Generator--><defs id="genericDefs"/><g><defs id="defs1"><clipPath clipPathUnits="userSpaceOnUse" id="clipPath1"><path d="M0 0 L2147483647 0 L2147483647 2147483647 L0 2147483647 L0 0 Z"/></clipPath><clipPath clipPathUnits="userSpaceOnUse" id="clipPath2"><path d="M0 0 L0 20 L250 20 L250 0 Z"/></clipPath><clipPath clipPathUnits="userSpaceOnUse" id="clipPath3"><path d="M0 0 L0 30 L190 30 L190 0 Z"/></clipPath><clipPath clipPathUnits="userSpaceOnUse" id="clipPath4"><path d="M0 0 L0 30 L180 30 L180 0 Z"/></clipPath><clipPath clipPathUnits="userSpaceOnUse" id="clipPath5"><path d="M0 0 L0 30 L200 30 L200 0 Z"/></clipPath><clipPath clipPathUnits="userSpaceOnUse" id="clipPath6"><path d="M0 0 L0 50 L390 50 L390 0 Z"/></clipPath><clipPath clipPathUnits="userSpaceOnUse" id="clipPath7"><path d="M0 0 L0 150 L920 150 L920 0 Z"/></clipPath><clipPath clipPathUnits="userSpaceOnUse" id="clipPath8"><path d="M0 0 L0 120 L920 120 L920 0 Z"/></clipPath><clipPath clipPathUnits="userSpaceOnUse" id="clipPath9"><path d="M0 0 L0 30 L150 30 L150 0 Z"/></clipPath><clipPath clipPathUnits="userSpaceOnUse" id="clipPath10"><path d="M0 0 L0 750 L170 750 L170 0 Z"/></clipPath><clipPath clipPathUnits="userSpaceOnUse" id="clipPath11"><path d="M0 0 L0 30 L100 30 L100 0 Z"/></clipPath><clipPath clipPathUnits="userSpaceOnUse" id="clipPath12"><path d="M0 0 L0 90 L130 90 L130 0 Z"/></clipPath><clipPath clipPathUnits="userSpaceOnUse" id="clipPath13"><path d="M0 0 L0 590 L170 590 L170 0 Z"/></clipPath><clipPath clipPathUnits="userSpaceOnUse" id="clipPath14"><path d="M0 0 L0 30 L160 30 L160 0 Z"/></clipPath><clipPath clipPathUnits="userSpaceOnUse" id="clipPath15"><path d="M0 0 L0 80 L920 80 L920 0 Z"/></clipPath><clipPath clipPathUnits="userSpaceOnUse" id="clipPath16"><path d="M0 0 L0 30 L170 30 L170 0 Z"/></clipPath><clipPath clipPathUnits="userSpaceOnUse" id="clipPath17"><path d="M0 0 L0 30 L120 30 L120 0 Z"/></clipPath><clipPath clipPathUnits="userSpaceOnUse" id="clipPath18"><path d="M0 0 L0 810 L1370 810 L1370 0 Z"/></clipPath><clipPath clipPathUnits="userSpaceOnUse" id="clipPath19"><path d="M0 0 L0 150 L30 150 L30 0 Z"/></clipPath><clipPath clipPathUnits="userSpaceOnUse" id="clipPath20"><path d="M0 0 L0 190 L140 190 L140 0 Z"/></clipPath><clipPath clipPathUnits="userSpaceOnUse" id="clipPath21"><path d="M0 0 L0 330 L190 330 L190 0 Z"/></clipPath><clipPath clipPathUnits="userSpaceOnUse" id="clipPath22"><path d="M0 0 L0 90 L190 90 L190 0 Z"/></clipPath><clipPath clipPathUnits="userSpaceOnUse" id="clipPath23"><path d="M0 0 L0 140 L30 140 L30 0 Z"/></clipPath><clipPath clipPathUnits="userSpaceOnUse" id="clipPath24"><path d="M0 0 L0 30 L130 30 L130 0 Z"/></clipPath><clipPath clipPathUnits="userSpaceOnUse" id="clipPath25"><path d="M0 0 L0 180 L190 180 L190 0 Z"/></clipPath><clipPath clipPathUnits="userSpaceOnUse" id="clipPath26"><path d="M0 0 L0 200 L120 200 L120 0 Z"/></clipPath><clipPath clipPathUnits="userSpaceOnUse" id="clipPath27"><path d="M0 0 L0 520 L200 520 L200 0 Z"/></clipPath><clipPath clipPathUnits="userSpaceOnUse" id="clipPath28"><path d="M0 0 L0 30 L70 30 L70 0 Z"/></clipPath><clipPath clipPathUnits="userSpaceOnUse" id="clipPath29"><path d="M0 0 L0 50 L280 50 L280 0 Z"/></clipPath><clipPath clipPathUnits="userSpaceOnUse" id="clipPath30"><path d="M0 0 L0 160 L30 160 L30 0 Z"/></clipPath><clipPath clipPathUnits="userSpaceOnUse" id="clipPath31"><path d="M0 0 L0 680 L360 680 L360 0 Z"/></clipPath><clipPath clipPathUnits="userSpaceOnUse" id="clipPath32"><path d="M0 0 L0 350 L230 350 L230 0 Z"/></clipPath><clipPath clipPathUnits="userSpaceOnUse" id="clipPath33"><path d="M0 0 L0 340 L260 340 L260 0 Z"/></clipPath><clipPath clipPathUnits="userSpaceOnUse" id="clipPath34"><path d="M0 0 L0 40 L60 40 L60 0 Z"/></clipPath><clipPath clipPathUnits="userSpaceOnUse" id="clipPath35"><path d="M0 0 L0 40 L130 40 L130 0 Z"/></clipPath><clipPath clipPathUnits="userSpaceOnUse" id="clipPath36"><path d="M0 0 L0 50 L350 50 L350 0 Z"/></clipPath></defs><g fill="rgb(255,255,0)" fill-opacity="0.4902" stroke="rgb(255,255,0)" stroke-opacity="0.4902" transform="translate(890,80)"><path clip-path="url(#clipPath2)" d="M0.5 0.5 L238.5 0.5 L249 12.5 L249 19 L0.5 19 Z" stroke="none"/></g><g transform="translate(890,80)"><path clip-path="url(#clipPath2)" d="M0.5 0.5 L238.5 0.5 L249 12.5 L249 19 L0.5 19 Z" fill="none"/><path clip-path="url(#clipPath2)" d="M238.5 0.5 L238.5 12.5 L249 12.5" fill="none"/><text clip-path="url(#clipPath2)" font-family="sans-serif" font-size="14px" stroke="none" x="5" xml:space="preserve" y="17.8174">DBConfig and DBProvider left out</text></g><g fill="rgb(255,255,255)" fill-opacity="0" stroke="rgb(255,255,255)" stroke-opacity="0" transform="translate(820,120)"><rect clip-path="url(#clipPath3)" height="28.5" stroke="none" width="188.5" x="0.5" y="0.5"/></g><g transform="translate(820,120)"><rect clip-path="url(#clipPath3)" fill="none" height="28.5" width="188.5" x="0.5" y="0.5"/><text clip-path="url(#clipPath3)" font-family="sans-serif" font-size="14px" stroke="none" x="10" xml:space="preserve" y="17.8174">CustomerRepositoryImpl</text></g><g fill="rgb(255,255,255)" fill-opacity="0" stroke="rgb(255,255,255)" stroke-opacity="0" transform="translate(570,120)"><rect clip-path="url(#clipPath4)" height="28.5" stroke="none" width="178.5" x="0.5" y="0.5"/></g><g transform="translate(570,120)"><rect clip-path="url(#clipPath4)" fill="none" height="28.5" width="178.5" x="0.5" y="0.5"/><text clip-path="url(#clipPath4)" font-family="sans-serif" font-size="14px" stroke="none" x="36" xml:space="preserve" y="17.8174">PersistenceImpl</text></g><g fill="rgb(255,255,255)" fill-opacity="0" stroke="rgb(255,255,255)" stroke-opacity="0" transform="translate(270,120)"><rect clip-path="url(#clipPath5)" height="28.5" stroke="none" width="198.5" x="0.5" y="0.5"/></g><g transform="translate(270,120)"><rect clip-path="url(#clipPath5)" fill="none" height="28.5" width="198.5" x="0.5" y="0.5"/><text clip-path="url(#clipPath5)" font-family="sans-serif" font-size="14px" stroke="none" x="37" xml:space="preserve" y="17.8174">PersistenceFactory</text></g><g fill="rgb(0,255,0)" fill-opacity="0.4902" stroke="rgb(0,255,0)" stroke-opacity="0.4902" transform="translate(690,260)"><rect clip-path="url(#clipPath6)" height="48.5" stroke="none" width="388.5" x="0.5" y="0.5"/></g><g transform="translate(690,260)"><rect clip-path="url(#clipPath6)" fill="none" height="48.5" width="388.5" x="0.5" y="0.5"/><text clip-path="url(#clipPath6)" font-family="sans-serif" font-size="14px" stroke="none" x="157" xml:space="preserve" y="17.8174">«interface»</text><text clip-path="url(#clipPath6)" font-family="sans-serif" font-size="14px" stroke="none" x="125" xml:space="preserve" y="33.6348">CustomerRepository</text></g><g fill="rgb(0,255,0)" fill-opacity="0.4902" stroke="rgb(0,255,0)" stroke-opacity="0.4902" transform="translate(260,260)"><rect clip-path="url(#clipPath6)" height="48.5" stroke="none" width="388.5" x="0.5" y="0.5"/></g><g transform="translate(260,260)"><rect clip-path="url(#clipPath6)" fill="none" height="48.5" width="388.5" x="0.5" y="0.5"/><text clip-path="url(#clipPath6)" font-family="sans-serif" font-size="14px" stroke="none" x="157" xml:space="preserve" y="17.8174">«interface»</text><text clip-path="url(#clipPath6)" font-family="sans-serif" font-size="14px" stroke="none" x="156" xml:space="preserve" y="33.6348">Persistence</text></g><g fill="rgb(255,255,255)" fill-opacity="0" stroke="rgb(255,255,255)" stroke-opacity="0" transform="translate(230,50)"><path clip-path="url(#clipPath7)" d="M0.5 0.5 L368.5 0.5 L368.5 21.3174 L919 21.3174 L919 149 L0.5 149 Z" stroke="none"/></g><g transform="translate(230,50)"><path clip-path="url(#clipPath7)" d="M0.5 0.5 L368.5 0.5 L368.5 21.3174 L919 21.3174 L919 149 L0.5 149 Z" fill="none"/><path clip-path="url(#clipPath7)" d="M0.5 21.3174 L368.5 21.3174" fill="none"/><text clip-path="url(#clipPath7)" font-family="sans-serif" font-size="14px" stroke="none" x="5" xml:space="preserve" y="15.8174">persistence</text></g><g fill="rgb(255,255,255)" fill-opacity="0" stroke="rgb(255,255,255)" stroke-opacity="0" transform="translate(230,220)"><path clip-path="url(#clipPath8)" d="M0.5 0.5 L368.5 0.5 L368.5 21.3174 L919 21.3174 L919 119 L0.5 119 Z" stroke="none"/></g><g transform="translate(230,220)"><path clip-path="url(#clipPath8)" d="M0.5 0.5 L368.5 0.5 L368.5 21.3174 L919 21.3174 L919 119 L0.5 119 Z" fill="none"/><path clip-path="url(#clipPath8)" d="M0.5 21.3174 L368.5 21.3174" fill="none"/><text clip-path="url(#clipPath8)" font-family="sans-serif" font-size="14px" stroke="none" x="5" xml:space="preserve" y="15.8174">persistence.api</text></g><g fill="rgb(255,255,255)" fill-opacity="0" stroke="rgb(255,255,255)" stroke-opacity="0" transform="translate(50,100)"><rect clip-path="url(#clipPath9)" height="28.5" stroke="none" width="148.5" x="0.5" y="0.5"/></g><g transform="translate(50,100)"><rect clip-path="url(#clipPath9)" fill="none" height="28.5" width="148.5" x="0.5" y="0.5"/><text clip-path="url(#clipPath9)" font-family="sans-serif" font-size="14px" stroke="none" x="39" xml:space="preserve" y="17.8174">Assembler</text></g><g fill="rgb(255,255,255)" fill-opacity="0" stroke="rgb(255,255,255)" stroke-opacity="0" transform="translate(40,50)"><path clip-path="url(#clipPath10)" d="M0.5 0.5 L79.7617 0.5 L79.7617 21.3174 L169 21.3174 L169 749 L0.5 749 Z" stroke="none"/></g><g transform="translate(40,50)"><path clip-path="url(#clipPath10)" d="M0.5 0.5 L79.7617 0.5 L79.7617 21.3174 L169 21.3174 L169 749 L0.5 749 Z" fill="none"/><path clip-path="url(#clipPath10)" d="M0.5 21.3174 L79.7617 21.3174" fill="none"/><text clip-path="url(#clipPath10)" font-family="sans-serif" font-size="14px" stroke="none" x="5" xml:space="preserve" y="15.8174">assembler</text></g><g fill="rgb(0,255,0)" fill-opacity="0.4902" stroke="rgb(0,255,0)" stroke-opacity="0.4902" transform="translate(690,590)"><rect clip-path="url(#clipPath6)" height="48.5" stroke="none" width="388.5" x="0.5" y="0.5"/></g><g transform="translate(690,590)"><rect clip-path="url(#clipPath6)" fill="none" height="48.5" width="388.5" x="0.5" y="0.5"/><text clip-path="url(#clipPath6)" font-family="sans-serif" font-size="14px" stroke="none" x="157" xml:space="preserve" y="17.8174">«interface»</text><text clip-path="url(#clipPath6)" font-family="sans-serif" font-size="14px" stroke="none" x="132" xml:space="preserve" y="33.6348">CustomerManager</text></g><g fill="rgb(255,255,255)" fill-opacity="0" stroke="rgb(255,255,255)" stroke-opacity="0" transform="translate(230,550)"><path clip-path="url(#clipPath8)" d="M0.5 0.5 L368.5 0.5 L368.5 21.3174 L919 21.3174 L919 119 L0.5 119 Z" stroke="none"/></g><g transform="translate(230,550)"><path clip-path="url(#clipPath8)" d="M0.5 0.5 L368.5 0.5 L368.5 21.3174 L919 21.3174 L919 119 L0.5 119 Z" fill="none"/><path clip-path="url(#clipPath8)" d="M0.5 21.3174 L368.5 21.3174" fill="none"/><text clip-path="url(#clipPath8)" font-family="sans-serif" font-size="14px" stroke="none" x="5" xml:space="preserve" y="15.8174">businesslogic.api</text></g><g fill="rgb(255,255,255)" fill-opacity="0" stroke="rgb(255,255,255)" stroke-opacity="0" transform="translate(570,430)"><rect clip-path="url(#clipPath4)" height="28.5" stroke="none" width="178.5" x="0.5" y="0.5"/></g><g transform="translate(570,430)"><rect clip-path="url(#clipPath4)" fill="none" height="28.5" width="178.5" x="0.5" y="0.5"/><text clip-path="url(#clipPath4)" font-family="sans-serif" font-size="14px" stroke="none" x="27" xml:space="preserve" y="17.8174">BusinessLogicImpl</text></g><g fill="rgb(255,255,255)" fill-opacity="0" stroke="rgb(255,255,255)" stroke-opacity="0" transform="translate(300,430)"><rect clip-path="url(#clipPath5)" height="28.5" stroke="none" width="198.5" x="0.5" y="0.5"/></g><g transform="translate(300,430)"><rect clip-path="url(#clipPath5)" fill="none" height="28.5" width="198.5" x="0.5" y="0.5"/><text clip-path="url(#clipPath5)" font-family="sans-serif" font-size="14px" stroke="none" x="28" xml:space="preserve" y="17.8174">BusinessLogicFactory</text></g><g fill="rgb(255,255,255)" fill-opacity="0" stroke="rgb(255,255,255)" stroke-opacity="0" transform="translate(400,760)"><rect clip-path="url(#clipPath11)" height="28.5" stroke="none" width="98.5" x="0.5" y="0.5"/></g><g transform="translate(400,760)"><rect clip-path="url(#clipPath11)" fill="none" height="28.5" width="98.5" x="0.5" y="0.5"/><text clip-path="url(#clipPath11)" font-family="sans-serif" font-size="14px" stroke="none" x="18" xml:space="preserve" y="17.8174">APIServer</text></g><g fill="rgb(255,255,255)" fill-opacity="0" stroke="rgb(255,255,255)" stroke-opacity="0" transform="translate(1210,410)"><rect clip-path="url(#clipPath12)" height="88.5" stroke="none" width="128.5" x="0.5" y="0.5"/></g><g transform="translate(1210,410)"><rect clip-path="url(#clipPath12)" fill="none" height="88.5" width="128.5" x="0.5" y="0.5"/><text clip-path="url(#clipPath12)" font-family="sans-serif" font-size="14px" stroke="none" x="16" xml:space="preserve" y="17.8174">CustomerData</text></g><g fill="rgb(255,255,255)" fill-opacity="0" stroke="rgb(255,255,255)" stroke-opacity="0" transform="translate(1190,170)"><path clip-path="url(#clipPath13)" d="M0.5 0.5 L90.9863 0.5 L90.9863 21.3174 L169 21.3174 L169 589 L0.5 589 Z" stroke="none"/></g><g transform="translate(1190,170)"><path clip-path="url(#clipPath13)" d="M0.5 0.5 L90.9863 0.5 L90.9863 21.3174 L169 21.3174 L169 589 L0.5 589 Z" fill="none"/><path clip-path="url(#clipPath13)" d="M0.5 21.3174 L90.9863 21.3174" fill="none"/><text clip-path="url(#clipPath13)" font-family="sans-serif" font-size="14px" stroke="none" x="5" xml:space="preserve" y="15.8174">datarecords</text></g><g fill="rgb(0,255,0)" fill-opacity="0.4902" stroke="rgb(0,255,0)" stroke-opacity="0.4902" transform="translate(260,590)"><rect clip-path="url(#clipPath6)" height="48.5" stroke="none" width="388.5" x="0.5" y="0.5"/></g><g transform="translate(260,590)"><rect clip-path="url(#clipPath6)" fill="none" height="48.5" width="388.5" x="0.5" y="0.5"/><text clip-path="url(#clipPath6)" font-family="sans-serif" font-size="14px" stroke="none" x="157" xml:space="preserve" y="17.8174">«interface»</text><text clip-path="url(#clipPath6)" font-family="sans-serif" font-size="14px" stroke="none" x="147" xml:space="preserve" y="33.6348">BusinessLogic</text></g><g fill="rgb(255,255,255)" fill-opacity="0" stroke="rgb(255,255,255)" stroke-opacity="0" transform="translate(820,760)"><rect clip-path="url(#clipPath14)" height="28.5" stroke="none" width="158.5" x="0.5" y="0.5"/></g><g transform="translate(820,760)"><rect clip-path="url(#clipPath14)" fill="none" height="28.5" width="158.5" x="0.5" y="0.5"/><text clip-path="url(#clipPath14)" font-family="sans-serif" font-size="14px" stroke="none" x="16" xml:space="preserve" y="17.8174">CustomerResource</text></g><g fill="rgb(255,255,255)" fill-opacity="0" stroke="rgb(255,255,255)" stroke-opacity="0" transform="translate(230,720)"><path clip-path="url(#clipPath15)" d="M0.5 0.5 L368.5 0.5 L368.5 21.3174 L919 21.3174 L919 79 L0.5 79 Z" stroke="none"/></g><g transform="translate(230,720)"><path clip-path="url(#clipPath15)" d="M0.5 0.5 L368.5 0.5 L368.5 21.3174 L919 21.3174 L919 79 L0.5 79 Z" fill="none"/><path clip-path="url(#clipPath15)" d="M0.5 21.3174 L368.5 21.3174" fill="none"/><text clip-path="url(#clipPath15)" font-family="sans-serif" font-size="14px" stroke="none" x="5" xml:space="preserve" y="15.8174">restapi</text></g><g fill="rgb(255,255,255)" fill-opacity="0" stroke="rgb(255,255,255)" stroke-opacity="0" transform="translate(790,430)"><rect clip-path="url(#clipPath16)" height="28.5" stroke="none" width="168.5" x="0.5" y="0.5"/></g><g transform="translate(790,430)"><rect clip-path="url(#clipPath16)" fill="none" height="28.5" width="168.5" x="0.5" y="0.5"/><text clip-path="url(#clipPath16)" font-family="sans-serif" font-size="14px" stroke="none" x="7" xml:space="preserve" y="17.8174">CustomerManagerImpl</text></g><g fill="rgb(255,255,255)" fill-opacity="0" stroke="rgb(255,255,255)" stroke-opacity="0" transform="translate(990,430)"><rect clip-path="url(#clipPath17)" height="28.5" stroke="none" width="118.5" x="0.5" y="0.5"/></g><g transform="translate(990,430)"><rect clip-path="url(#clipPath17)" fill="none" height="28.5" width="118.5" x="0.5" y="0.5"/><text clip-path="url(#clipPath17)" font-family="sans-serif" font-size="14px" stroke="none" x="27" xml:space="preserve" y="17.8174">Customer</text></g><g fill="rgb(255,255,255)" fill-opacity="0" stroke="rgb(255,255,255)" stroke-opacity="0" transform="translate(230,380)"><path clip-path="url(#clipPath7)" d="M0.5 0.5 L368.5 0.5 L368.5 21.3174 L919 21.3174 L919 149 L0.5 149 Z" stroke="none"/></g><g transform="translate(230,380)"><path clip-path="url(#clipPath7)" d="M0.5 0.5 L368.5 0.5 L368.5 21.3174 L919 21.3174 L919 149 L0.5 149 Z" fill="none"/><path clip-path="url(#clipPath7)" d="M0.5 21.3174 L368.5 21.3174" fill="none"/><text clip-path="url(#clipPath7)" font-family="sans-serif" font-size="14px" stroke="none" x="5" xml:space="preserve" y="15.8174">businesslogic</text></g><g fill="rgb(255,255,255)" fill-opacity="0" stroke="rgb(255,255,255)" stroke-opacity="0" transform="translate(30,0)"><path clip-path="url(#clipPath18)" d="M0.5 0.5 L548.5 0.5 L548.5 21.3174 L1369 21.3174 L1369 809 L0.5 809 Z" stroke="none"/></g><g transform="translate(30,0)"><path clip-path="url(#clipPath18)" d="M0.5 0.5 L548.5 0.5 L548.5 21.3174 L1369 21.3174 L1369 809 L0.5 809 Z" fill="none"/><path clip-path="url(#clipPath18)" d="M0.5 21.3174 L548.5 21.3174" fill="none"/><text clip-path="url(#clipPath18)" font-family="sans-serif" font-size="14px" stroke="none" x="5" xml:space="preserve" y="15.8174">AirLine Information System</text></g><g transform="translate(870,300)"><path clip-path="url(#clipPath19)" d="M10.5 11.5 L10.5 130.5" fill="none"/><path clip-path="url(#clipPath19)" d="M4 22.2583 L10.5 11 L17 22.2583" fill="none"/></g><g stroke-dasharray="8,5" stroke-linecap="butt" stroke-miterlimit="5" transform="translate(710,300)"><path clip-path="url(#clipPath19)" d="M10.5 11.5 L10.5 130.5" fill="none"/><path clip-path="url(#clipPath19)" d="M4 22.2583 L10.5 11 L17 22.2583" fill="none" stroke-dasharray="none" stroke-linecap="square" stroke-miterlimit="10"/></g><g transform="translate(620,300)"><path clip-path="url(#clipPath19)" d="M10.5 11.5 L10.5 130.5" fill="none"/><path clip-path="url(#clipPath19)" d="M4 22.2583 L10.5 11 L17 22.2583" fill="none"/></g><g stroke-dasharray="8,5" stroke-linecap="butt" stroke-miterlimit="5" transform="translate(420,300)"><path clip-path="url(#clipPath19)" d="M10.5 11.5 L10.5 130.5" fill="none"/><path clip-path="url(#clipPath19)" d="M4 22.2583 L10.5 11 L17 22.2583" fill="none" stroke-dasharray="none" stroke-linecap="square" stroke-miterlimit="10"/></g><g stroke-dasharray="8,5" stroke-linecap="butt" stroke-miterlimit="5" transform="translate(140,120)"><path clip-path="url(#clipPath20)" d="M119.5 170.5 L10.5 170.5" fill="none"/><path clip-path="url(#clipPath20)" d="M10.5 170.5 L10.5 10.5" fill="none"/><path clip-path="url(#clipPath20)" d="M108.7417 164 L120 170.5 L108.7417 177" fill="none" stroke-dasharray="none" stroke-linecap="square" stroke-miterlimit="10"/></g><g stroke-dasharray="8,5" stroke-linecap="butt" stroke-miterlimit="5" transform="translate(130,120)"><path clip-path="url(#clipPath21)" d="M169.5 310.5 L10.5 310.5" fill="none"/><path clip-path="url(#clipPath21)" d="M10.5 310.5 L10.5 10.5" fill="none"/><path clip-path="url(#clipPath21)" d="M158.7417 304 L170 310.5 L158.7417 317" fill="none" stroke-dasharray="none" stroke-linecap="square" stroke-miterlimit="10"/></g><g font-family="sans-serif" font-size="14px" transform="translate(130,120)"><text clip-path="url(#clipPath21)" stroke="none" x="20.1401" xml:space="preserve" y="306">«injects Persistence»</text></g><g stroke-dasharray="8,5" stroke-linecap="butt" stroke-miterlimit="5" transform="translate(170,120)"><path clip-path="url(#clipPath22)" d="M170.5 31.5 L170.5 70.5" fill="none"/><path clip-path="url(#clipPath22)" d="M170.5 70.5 L10.5 70.5" fill="none"/><path clip-path="url(#clipPath22)" d="M10.5 70.5 L10.5 10.5" fill="none"/><path clip-path="url(#clipPath22)" d="M164 42.2583 L170.5 31 L177 42.2583" fill="none" stroke-dasharray="none" stroke-linecap="square" stroke-miterlimit="10"/></g><g font-family="sans-serif" font-size="14px" transform="translate(170,120)"><text clip-path="url(#clipPath22)" stroke="none" x="27.8579" xml:space="preserve" y="66">«gets Persistence»</text></g><g stroke-dasharray="8,5" stroke-linecap="butt" stroke-miterlimit="5" transform="translate(710,140)"><path clip-path="url(#clipPath23)" d="M10.5 119.5 L10.5 10.5" fill="none"/><path clip-path="url(#clipPath23)" d="M17 108.7417 L10.5 120 L4 108.7417" fill="none" stroke-dasharray="none" stroke-linecap="square" stroke-miterlimit="10"/></g><g stroke-dasharray="8,5" stroke-linecap="butt" stroke-miterlimit="5" transform="translate(460,130)"><path clip-path="url(#clipPath24)" d="M109.5 10.5 L10.5 10.5" fill="none"/><path clip-path="url(#clipPath24)" d="M98.7417 4 L110 10.5 L98.7417 17" fill="none" stroke-dasharray="none" stroke-linecap="square" stroke-miterlimit="10"/></g><g stroke-dasharray="8,5" stroke-linecap="butt" stroke-miterlimit="5" transform="translate(420,140)"><path clip-path="url(#clipPath23)" d="M10.5 119.5 L10.5 10.5" fill="none"/><path clip-path="url(#clipPath23)" d="M17 108.7417 L10.5 120 L4 108.7417" fill="none" stroke-dasharray="none" stroke-linecap="square" stroke-miterlimit="10"/></g><g stroke-dasharray="8,5" stroke-linecap="butt" stroke-miterlimit="5" transform="translate(740,130)"><path clip-path="url(#clipPath11)" d="M79.5 10.5 L10.5 10.5" fill="none"/><path clip-path="url(#clipPath11)" d="M68.7417 4 L80 10.5 L68.7417 17" fill="none" stroke-dasharray="none" stroke-linecap="square" stroke-miterlimit="10"/></g><g stroke-dasharray="8,5" stroke-linecap="butt" stroke-miterlimit="5" transform="translate(1000,130)"><path clip-path="url(#clipPath25)" d="M170.5 160.5 L170.5 10.5" fill="none"/><path clip-path="url(#clipPath25)" d="M170.5 10.5 L10.5 10.5" fill="none"/></g><g stroke-dasharray="8,5" stroke-linecap="butt" stroke-miterlimit="5" transform="translate(910,140)"><path clip-path="url(#clipPath23)" d="M10.5 119.5 L10.5 10.5" fill="none"/><path clip-path="url(#clipPath23)" d="M17 108.7417 L10.5 120 L4 108.7417 Z" fill="white" stroke="none"/><path clip-path="url(#clipPath23)" d="M17 108.7417 L10.5 120 L4 108.7417 Z" fill="none" stroke-dasharray="none" stroke-linecap="square" stroke-miterlimit="10"/></g><g stroke-dasharray="8,5" stroke-linecap="butt" stroke-miterlimit="5" transform="translate(620,140)"><path clip-path="url(#clipPath23)" d="M10.5 119.5 L10.5 10.5" fill="none"/><path clip-path="url(#clipPath23)" d="M17 108.7417 L10.5 120 L4 108.7417 Z" fill="white" stroke="none"/><path clip-path="url(#clipPath23)" d="M17 108.7417 L10.5 120 L4 108.7417 Z" fill="none" stroke-dasharray="none" stroke-linecap="square" stroke-miterlimit="10"/></g><g stroke-dasharray="8,5" stroke-linecap="butt" stroke-miterlimit="5" transform="translate(1070,280)"><path clip-path="url(#clipPath26)" d="M100.5 180.5 L100.5 10.5" fill="none"/><path clip-path="url(#clipPath26)" d="M100.5 10.5 L10.5 10.5" fill="none"/></g><g stroke-dasharray="8,5" stroke-linecap="butt" stroke-miterlimit="5" transform="translate(80,120)"><path clip-path="url(#clipPath27)" d="M179.5 500.5 L10.5 500.5" fill="none"/><path clip-path="url(#clipPath27)" d="M10.5 500.5 L10.5 10.5" fill="none"/><path clip-path="url(#clipPath27)" d="M168.7417 494 L180 500.5 L168.7417 507" fill="none" stroke-dasharray="none" stroke-linecap="square" stroke-miterlimit="10"/></g><g stroke-dasharray="8,5" stroke-linecap="butt" stroke-miterlimit="5" transform="translate(640,280)"><path clip-path="url(#clipPath28)" d="M49.5 10.5 L10.5 10.5" fill="none"/><path clip-path="url(#clipPath28)" d="M38.7417 4 L50 10.5 L38.7417 17" fill="none" stroke-dasharray="none" stroke-linecap="square" stroke-miterlimit="10"/></g><g stroke-dasharray="8,5" stroke-linecap="butt" stroke-miterlimit="5" transform="translate(640,610)"><path clip-path="url(#clipPath28)" d="M49.5 10.5 L10.5 10.5" fill="none"/><path clip-path="url(#clipPath28)" d="M38.7417 4 L50 10.5 L38.7417 17" fill="none" stroke-dasharray="none" stroke-linecap="square" stroke-miterlimit="10"/></g><g stroke-dasharray="8,5" stroke-linecap="butt" stroke-miterlimit="5" transform="translate(910,450)"><path clip-path="url(#clipPath29)" d="M260.5 30.5 L10.5 30.5" fill="none"/><path clip-path="url(#clipPath29)" d="M10.5 30.5 L10.5 10.5" fill="none"/></g><g stroke-dasharray="8,5" stroke-linecap="butt" stroke-miterlimit="5" transform="translate(740,440)"><path clip-path="url(#clipPath28)" d="M49.5 10.5 L10.5 10.5" fill="none"/><path clip-path="url(#clipPath28)" d="M38.7417 4 L50 10.5 L38.7417 17" fill="none" stroke-dasharray="none" stroke-linecap="square" stroke-miterlimit="10"/></g><g stroke-dasharray="8,5" stroke-linecap="butt" stroke-miterlimit="5" transform="translate(710,450)"><path clip-path="url(#clipPath30)" d="M10.5 139.5 L10.5 10.5" fill="none"/><path clip-path="url(#clipPath30)" d="M17 128.7417 L10.5 140 L4 128.7417" fill="none" stroke-dasharray="none" stroke-linecap="square" stroke-miterlimit="10"/></g><g stroke-dasharray="8,5" stroke-linecap="butt" stroke-miterlimit="5" transform="translate(420,450)"><path clip-path="url(#clipPath30)" d="M10.5 139.5 L10.5 10.5" fill="none"/><path clip-path="url(#clipPath30)" d="M17 128.7417 L10.5 140 L4 128.7417" fill="none" stroke-dasharray="none" stroke-linecap="square" stroke-miterlimit="10"/></g><g stroke-dasharray="8,5" stroke-linecap="butt" stroke-miterlimit="5" transform="translate(490,440)"><path clip-path="url(#clipPath11)" d="M79.5 10.5 L10.5 10.5" fill="none"/><path clip-path="url(#clipPath11)" d="M68.7417 4 L80 10.5 L68.7417 17" fill="none" stroke-dasharray="none" stroke-linecap="square" stroke-miterlimit="10"/></g><g stroke-dasharray="8,5" stroke-linecap="butt" stroke-miterlimit="5" transform="translate(60,120)"><path clip-path="url(#clipPath31)" d="M339.5 660.5 L10.5 660.5" fill="none"/><path clip-path="url(#clipPath31)" d="M10.5 660.5 L10.5 10.5" fill="none"/><path clip-path="url(#clipPath31)" d="M328.7417 654 L340 660.5 L328.7417 667" fill="none" stroke-dasharray="none" stroke-linecap="square" stroke-miterlimit="10"/></g><g font-family="sans-serif" font-size="14px" transform="translate(60,120)"><text clip-path="url(#clipPath31)" stroke="none" x="95.9321" xml:space="preserve" y="656">«injects BusinessLogic»</text></g><g stroke-dasharray="8,5" stroke-linecap="butt" stroke-miterlimit="5" transform="translate(90,120)"><path clip-path="url(#clipPath32)" d="M209.5 330.5 L10.5 330.5" fill="none"/><path clip-path="url(#clipPath32)" d="M10.5 330.5 L10.5 10.5" fill="none"/><path clip-path="url(#clipPath32)" d="M198.7417 324 L210 330.5 L198.7417 337" fill="none" stroke-dasharray="none" stroke-linecap="square" stroke-miterlimit="10"/></g><g font-family="sans-serif" font-size="14px" transform="translate(90,120)"><text clip-path="url(#clipPath32)" stroke="none" x="38.6499" xml:space="preserve" y="326">«gets BusinessLogic»</text></g><g stroke-dasharray="8,5" stroke-linecap="butt" stroke-miterlimit="5" transform="translate(1070,600)"><path clip-path="url(#clipPath17)" d="M100.5 10.5 L10.5 10.5" fill="none"/></g><g stroke-dasharray="8,5" stroke-linecap="butt" stroke-miterlimit="5" transform="translate(970,450)"><path clip-path="url(#clipPath33)" d="M239.5 10.5 L200.5 10.5" fill="none"/><path clip-path="url(#clipPath33)" d="M200.5 10.5 L200.5 320.5" fill="none"/><path clip-path="url(#clipPath33)" d="M200.5 320.5 L10.5 320.5" fill="none"/><path clip-path="url(#clipPath33)" d="M228.7417 4 L240 10.5 L228.7417 17" fill="none" stroke-dasharray="none" stroke-linecap="square" stroke-miterlimit="10"/></g><g transform="translate(440,630)"><path clip-path="url(#clipPath19)" d="M10.5 11.5 L10.5 130.5" fill="none"/><path clip-path="url(#clipPath19)" d="M4 22.2583 L10.5 11 L17 22.2583" fill="none"/></g><g transform="translate(890,630)"><path clip-path="url(#clipPath19)" d="M10.5 11.5 L10.5 130.5" fill="none"/><path clip-path="url(#clipPath19)" d="M4 22.2583 L10.5 11 L17 22.2583" fill="none"/></g><g stroke-dasharray="8,5" stroke-linecap="butt" stroke-miterlimit="5" transform="translate(870,450)"><path clip-path="url(#clipPath30)" d="M10.5 139.5 L10.5 10.5" fill="none"/><path clip-path="url(#clipPath30)" d="M17 128.7417 L10.5 140 L4 128.7417 Z" fill="white" stroke="none"/><path clip-path="url(#clipPath30)" d="M17 128.7417 L10.5 140 L4 128.7417 Z" fill="none" stroke-dasharray="none" stroke-linecap="square" stroke-miterlimit="10"/></g><g stroke-dasharray="8,5" stroke-linecap="butt" stroke-miterlimit="5" transform="translate(950,420)"><path clip-path="url(#clipPath34)" d="M39.5 20.5 L10.5 20.5" fill="none"/><path clip-path="url(#clipPath34)" d="M28.7417 14 L40 20.5 L28.7417 27" fill="none" stroke-dasharray="none" stroke-linecap="square" stroke-miterlimit="10"/></g><g transform="translate(1100,420)"><path clip-path="url(#clipPath35)" d="M109.5 20.5 L10.5 20.5" fill="none"/><path clip-path="url(#clipPath35)" d="M98.7417 14 L110 20.5 L98.7417 27" fill="none"/></g><g stroke-dasharray="8,5" stroke-linecap="butt" stroke-miterlimit="5" transform="translate(490,750)"><path clip-path="url(#clipPath36)" d="M10.5 20.5 L329.5 20.5" fill="none"/><path clip-path="url(#clipPath36)" d="M318.7417 27 L330 20.5 L318.7417 14" fill="none" stroke-dasharray="none" stroke-linecap="square" stroke-miterlimit="10"/></g><g font-family="sans-serif" font-size="14px" transform="translate(490,750)"><text clip-path="url(#clipPath36)" stroke="none" x="76.0742" xml:space="preserve" y="16">«injects CustomerManager»</text></g><g stroke-dasharray="8,5" stroke-linecap="butt" stroke-miterlimit="5" transform="translate(620,450)"><path clip-path="url(#clipPath30)" d="M10.5 139.5 L10.5 10.5" fill="none"/><path clip-path="url(#clipPath30)" d="M17 128.7417 L10.5 140 L4 128.7417 Z" fill="white" stroke="none"/><path clip-path="url(#clipPath30)" d="M17 128.7417 L10.5 140 L4 128.7417 Z" fill="none" stroke-dasharray="none" stroke-linecap="square" stroke-miterlimit="10"/></g></g><style>@media (prefers-color-scheme: dark) {
    svg {
        filter: invert(100%)
        }
    }</style></svg>