<?xml version="1.0" encoding="utf-8"?>
<!DOCTYPE svg PUBLIC "-//W3C//DTD SVG 1.0//EN" "http://www.w3.org/TR/2001/REC-SVG-20010904/DTD/svg10.dtd">
<svg color-interpolation="auto" color-rendering="auto" fill="black" fill-opacity="1" font-family="'Dialog'" font-size="12px" font-style="normal" font-weight="normal" height="290" image-rendering="auto" shape-rendering="auto" stroke="black" stroke-dasharray="none" stroke-dashoffset="0" stroke-linecap="square" stroke-linejoin="miter" stroke-miterlimit="10" stroke-opacity="1" stroke-width="1" text-rendering="auto" viewBox="20 280 1380 290" width="1380" xmlns="http://www.w3.org/2000/svg" xmlns:xlink="http://www.w3.org/1999/xlink"><!--Generated by the Batik Graphics2D SVG Generator--><defs id="genericDefs"/><g><defs id="defs1"><clipPath clipPathUnits="userSpaceOnUse" id="clipPath1"><path d="M0 0 L2147483647 0 L2147483647 2147483647 L0 2147483647 L0 0 Z"/></clipPath><clipPath clipPathUnits="userSpaceOnUse" id="clipPath2"><path d="M0 0 L0 30 L140 30 L140 0 Z"/></clipPath><clipPath clipPathUnits="userSpaceOnUse" id="clipPath3"><path d="M0 0 L0 30 L100 30 L100 0 Z"/></clipPath><clipPath clipPathUnits="userSpaceOnUse" id="clipPath4"><path d="M0 0 L0 150 L820 150 L820 0 Z"/></clipPath><clipPath clipPathUnits="userSpaceOnUse" id="clipPath5"><path d="M0 0 L0 250 L1340 250 L1340 0 Z"/></clipPath><clipPath clipPathUnits="userSpaceOnUse" id="clipPath6"><path d="M0 0 L0 40 L190 40 L190 0 Z"/></clipPath></defs><g fill="rgb(255,255,255)" fill-opacity="0" stroke="rgb(255,255,255)" stroke-opacity="0" transform="translate(610,460)"><rect clip-path="url(#clipPath2)" height="28.5" stroke="none" width="138.5" x="0.5" y="0.5"/></g><g transform="translate(610,460)"><rect clip-path="url(#clipPath2)" fill="none" height="28.5" width="138.5" x="0.5" y="0.5"/><text clip-path="url(#clipPath2)" font-family="sans-serif" font-size="14px" stroke="none" x="7" xml:space="preserve" y="17.8174">CustomerManager</text></g><g fill="rgb(255,255,255)" fill-opacity="0" stroke="rgb(255,255,255)" stroke-opacity="0" transform="translate(910,460)"><rect clip-path="url(#clipPath3)" height="28.5" stroke="none" width="98.5" x="0.5" y="0.5"/></g><g transform="translate(910,460)"><rect clip-path="url(#clipPath3)" fill="none" height="28.5" width="98.5" x="0.5" y="0.5"/><text clip-path="url(#clipPath3)" font-family="sans-serif" font-size="14px" stroke="none" x="17" xml:space="preserve" y="17.8174">Customer</text></g><g fill="rgb(255,255,255)" fill-opacity="0" stroke="rgb(255,255,255)" stroke-opacity="0" transform="translate(240,370)"><path clip-path="url(#clipPath4)" d="M0.5 0.5 L328.5 0.5 L328.5 21.3174 L819 21.3174 L819 149 L0.5 149 Z" stroke="none"/></g><g transform="translate(240,370)"><path clip-path="url(#clipPath4)" d="M0.5 0.5 L328.5 0.5 L328.5 21.3174 L819 21.3174 L819 149 L0.5 149 Z" fill="none"/><path clip-path="url(#clipPath4)" d="M0.5 21.3174 L328.5 21.3174" fill="none"/><text clip-path="url(#clipPath4)" font-family="sans-serif" font-size="14px" stroke="none" x="5" xml:space="preserve" y="15.8174">businesslogic</text></g><g fill="rgb(255,255,255)" fill-opacity="0" stroke="rgb(255,255,255)" stroke-opacity="0" transform="translate(40,300)"><path clip-path="url(#clipPath5)" d="M0.5 0.5 L536.5 0.5 L536.5 21.3174 L1339 21.3174 L1339 249 L0.5 249 Z" stroke="none"/></g><g transform="translate(40,300)"><path clip-path="url(#clipPath5)" d="M0.5 0.5 L536.5 0.5 L536.5 21.3174 L1339 21.3174 L1339 249 L0.5 249 Z" fill="none"/><path clip-path="url(#clipPath5)" d="M0.5 21.3174 L536.5 21.3174" fill="none"/><text clip-path="url(#clipPath5)" font-family="sans-serif" font-size="14px" stroke="none" x="5" xml:space="preserve" y="15.8174">AirLine Information System</text></g><g stroke-dasharray="8,5" stroke-linecap="butt" stroke-miterlimit="5" transform="translate(740,450)"><path clip-path="url(#clipPath6)" d="M169.5 20.5 L10.5 20.5" fill="none"/><path clip-path="url(#clipPath6)" d="M158.7417 14 L170 20.5 L158.7417 27" fill="none" stroke-dasharray="none" stroke-linecap="square" stroke-miterlimit="10"/></g></g><style>@media (prefers-color-scheme: dark) {
    svg {
        filter: invert(100%)
        }
    }</style></svg>