<?xml version="1.0" encoding="utf-8"?>
<!DOCTYPE svg PUBLIC "-//W3C//DTD SVG 1.0//EN" "http://www.w3.org/TR/2001/REC-SVG-20010904/DTD/svg10.dtd">
<svg color-interpolation="auto" color-rendering="auto" fill="currentColor" fill-opacity="1" font-family="'Dialog'" font-size="12px" font-style="normal" font-weight="normal" height="900" image-rendering="auto" shape-rendering="auto" stroke="currentColor" stroke-dasharray="none" stroke-dashoffset="0" stroke-linecap="square" stroke-linejoin="miter" stroke-miterlimit="10" stroke-opacity="1" stroke-width="1" text-rendering="auto" viewBox="-20 -20 1380 900" width="1380" xmlns="http://www.w3.org/2000/svg" xmlns:xlink="http://www.w3.org/1999/xlink"><!--Generated by the Batik Graphics2D SVG Generator--><defs id="genericDefs"/><g><defs id="defs1"><clipPath clipPathUnits="userSpaceOnUse" id="clipPath1"><path d="M0 0 L2147483647 0 L2147483647 2147483647 L0 2147483647 L0 0 Z"/></clipPath><clipPath clipPathUnits="userSpaceOnUse" id="clipPath2"><path d="M0 0 L0 40 L210 40 L210 0 Z"/></clipPath><clipPath clipPathUnits="userSpaceOnUse" id="clipPath3"><path d="M0 0 L0 40 L190 40 L190 0 Z"/></clipPath><clipPath clipPathUnits="userSpaceOnUse" id="clipPath4"><path d="M0 0 L0 40 L230 40 L230 0 Z"/></clipPath><clipPath clipPathUnits="userSpaceOnUse" id="clipPath5"><path d="M0 0 L0 40 L310 40 L310 0 Z"/></clipPath><clipPath clipPathUnits="userSpaceOnUse" id="clipPath6"><path d="M0 0 L0 50 L780 50 L780 0 Z"/></clipPath><clipPath clipPathUnits="userSpaceOnUse" id="clipPath7"><path d="M0 0 L0 360 L810 360 L810 0 Z"/></clipPath><clipPath clipPathUnits="userSpaceOnUse" id="clipPath8"><path d="M0 0 L0 30 L100 30 L100 0 Z"/></clipPath><clipPath clipPathUnits="userSpaceOnUse" id="clipPath9"><path d="M0 0 L0 760 L140 760 L140 0 Z"/></clipPath><clipPath clipPathUnits="userSpaceOnUse" id="clipPath10"><path d="M0 0 L0 130 L150 130 L150 0 Z"/></clipPath><clipPath clipPathUnits="userSpaceOnUse" id="clipPath11"><path d="M0 0 L0 590 L180 590 L180 0 Z"/></clipPath><clipPath clipPathUnits="userSpaceOnUse" id="clipPath12"><path d="M0 0 L0 30 L150 30 L150 0 Z"/></clipPath><clipPath clipPathUnits="userSpaceOnUse" id="clipPath13"><path d="M0 0 L0 30 L160 30 L160 0 Z"/></clipPath><clipPath clipPathUnits="userSpaceOnUse" id="clipPath14"><path d="M0 0 L0 80 L810 80 L810 0 Z"/></clipPath><clipPath clipPathUnits="userSpaceOnUse" id="clipPath15"><path d="M0 0 L0 30 L180 30 L180 0 Z"/></clipPath><clipPath clipPathUnits="userSpaceOnUse" id="clipPath16"><path d="M0 0 L0 30 L130 30 L130 0 Z"/></clipPath><clipPath clipPathUnits="userSpaceOnUse" id="clipPath17"><path d="M0 0 L0 290 L810 290 L810 0 Z"/></clipPath><clipPath clipPathUnits="userSpaceOnUse" id="clipPath18"><path d="M0 0 L0 860 L1340 860 L1340 0 Z"/></clipPath><clipPath clipPathUnits="userSpaceOnUse" id="clipPath19"><path d="M0 0 L0 60 L430 60 L430 0 Z"/></clipPath><clipPath clipPathUnits="userSpaceOnUse" id="clipPath20"><path d="M0 0 L0 110 L30 110 L30 0 Z"/></clipPath><clipPath clipPathUnits="userSpaceOnUse" id="clipPath21"><path d="M0 0 L0 50 L30 50 L30 0 Z"/></clipPath><clipPath clipPathUnits="userSpaceOnUse" id="clipPath22"><path d="M0 0 L0 120 L30 120 L30 0 Z"/></clipPath><clipPath clipPathUnits="userSpaceOnUse" id="clipPath23"><path d="M0 0 L0 40 L30 40 L30 0 Z"/></clipPath><clipPath clipPathUnits="userSpaceOnUse" id="clipPath24"><path d="M0 0 L0 360 L470 360 L470 0 Z"/></clipPath><clipPath clipPathUnits="userSpaceOnUse" id="clipPath25"><path d="M0 0 L0 240 L280 240 L280 0 Z"/></clipPath><clipPath clipPathUnits="userSpaceOnUse" id="clipPath26"><path d="M0 0 L0 430 L40 430 L40 0 Z"/></clipPath><clipPath clipPathUnits="userSpaceOnUse" id="clipPath27"><path d="M0 0 L0 430 L30 430 L30 0 Z"/></clipPath><clipPath clipPathUnits="userSpaceOnUse" id="clipPath28"><path d="M0 0 L0 60 L30 60 L30 0 Z"/></clipPath><clipPath clipPathUnits="userSpaceOnUse" id="clipPath29"><path d="M0 0 L0 240 L170 240 L170 0 Z"/></clipPath><clipPath clipPathUnits="userSpaceOnUse" id="clipPath30"><path d="M0 0 L0 40 L60 40 L60 0 Z"/></clipPath><clipPath clipPathUnits="userSpaceOnUse" id="clipPath31"><path d="M0 0 L0 40 L50 40 L50 0 Z"/></clipPath><clipPath clipPathUnits="userSpaceOnUse" id="clipPath32"><path d="M0 0 L0 170 L30 170 L30 0 Z"/></clipPath><clipPath clipPathUnits="userSpaceOnUse" id="clipPath33"><path d="M0 0 L0 40 L100 40 L100 0 Z"/></clipPath><clipPath clipPathUnits="userSpaceOnUse" id="clipPath34"><path d="M0 0 L0 50 L470 50 L470 0 Z"/></clipPath><clipPath clipPathUnits="userSpaceOnUse" id="clipPath35"><path d="M0 0 L0 690 L30 690 L30 0 Z"/></clipPath><clipPath clipPathUnits="userSpaceOnUse" id="clipPath36"><path d="M0 0 L0 40 L160 40 L160 0 Z"/></clipPath><clipPath clipPathUnits="userSpaceOnUse" id="clipPath37"><path d="M0 0 L0 580 L30 580 L30 0 Z"/></clipPath><clipPath clipPathUnits="userSpaceOnUse" id="clipPath38"><path d="M0 0 L0 80 L30 80 L30 0 Z"/></clipPath><clipPath clipPathUnits="userSpaceOnUse" id="clipPath39"><path d="M0 0 L0 40 L330 40 L330 0 Z"/></clipPath><clipPath clipPathUnits="userSpaceOnUse" id="clipPath40"><path d="M0 0 L0 40 L80 40 L80 0 Z"/></clipPath><clipPath clipPathUnits="userSpaceOnUse" id="clipPath41"><path d="M0 0 L0 240 L30 240 L30 0 Z"/></clipPath><clipPath clipPathUnits="userSpaceOnUse" id="clipPath42"><path d="M0 0 L0 300 L30 300 L30 0 Z"/></clipPath><clipPath clipPathUnits="userSpaceOnUse" id="clipPath43"><path d="M0 0 L0 230 L30 230 L30 0 Z"/></clipPath><clipPath clipPathUnits="userSpaceOnUse" id="clipPath44"><path d="M0 0 L0 40 L150 40 L150 0 Z"/></clipPath><clipPath clipPathUnits="userSpaceOnUse" id="clipPath45"><path d="M0 0 L0 40 L90 40 L90 0 Z"/></clipPath><clipPath clipPathUnits="userSpaceOnUse" id="clipPath46"><path d="M0 0 L0 40 L140 40 L140 0 Z"/></clipPath></defs><g fill="rgb(255,255,255)" fill-opacity="0" stroke="rgb(255,255,255)" stroke-opacity="0" transform="translate(720,130)"><rect clip-path="url(#clipPath2)" height="38.5" stroke="none" width="208.5" x="0.5" y="0.5"/></g><g transform="translate(720,130)"><rect clip-path="url(#clipPath2)" fill="none" height="38.5" width="208.5" x="0.5" y="0.5"/><text clip-path="url(#clipPath2)" font-family="sans-serif" font-size="14px" stroke="none" x="7" xml:space="preserve" y="17.8174">CustomerStorageServiceImpl</text></g><g fill="rgb(0,255,0)" fill-opacity="0.4902" stroke="rgb(0,255,0)" stroke-opacity="0.4902" transform="translate(610,60)"><rect clip-path="url(#clipPath3)" height="38.5" stroke="none" width="188.5" x="0.5" y="0.5"/></g><g transform="translate(610,60)"><rect clip-path="url(#clipPath3)" fill="none" height="38.5" width="188.5" x="0.5" y="0.5"/><text clip-path="url(#clipPath3)" font-family="sans-serif" font-size="14px" stroke="none" x="57" xml:space="preserve" y="17.8174">«interface»</text><text clip-path="url(#clipPath3)" font-family="sans-serif" font-size="14px" stroke="none" x="12" xml:space="preserve" y="33.6348">CustomerStorageService</text></g><g fill="rgb(255,255,255)" fill-opacity="0" stroke="rgb(255,255,255)" stroke-opacity="0" transform="translate(300,270)"><rect clip-path="url(#clipPath4)" height="38.5" stroke="none" width="228.5" x="0.5" y="0.5"/></g><g transform="translate(300,270)"><rect clip-path="url(#clipPath4)" fill="none" height="38.5" width="228.5" x="0.5" y="0.5"/><text clip-path="url(#clipPath4)" font-family="sans-serif" font-size="14px" stroke="none" x="51" xml:space="preserve" y="17.8174">PersistenceAPIImpl</text></g><g fill="rgb(0,255,0)" fill-opacity="0.4902" stroke="rgb(0,255,0)" stroke-opacity="0.4902" transform="translate(220,330)"><rect clip-path="url(#clipPath5)" height="38.5" stroke="none" width="308.5" x="0.5" y="0.5"/></g><g transform="translate(220,330)"><rect clip-path="url(#clipPath5)" fill="none" height="38.5" width="308.5" x="0.5" y="0.5"/><text clip-path="url(#clipPath5)" font-family="sans-serif" font-size="14px" stroke="none" x="117" xml:space="preserve" y="17.8174">«interface»</text><text clip-path="url(#clipPath5)" font-family="sans-serif" font-size="14px" stroke="none" x="92" xml:space="preserve" y="33.6348">PersistenceFactory</text></g><g fill="rgb(0,255,0)" fill-opacity="0.4902" stroke="rgb(0,255,0)" stroke-opacity="0.4902" transform="translate(220,190)"><rect clip-path="url(#clipPath6)" height="48.5" stroke="none" width="778.5" x="0.5" y="0.5"/></g><g transform="translate(220,190)"><rect clip-path="url(#clipPath6)" fill="none" height="48.5" width="778.5" x="0.5" y="0.5"/><text clip-path="url(#clipPath6)" font-family="sans-serif" font-size="14px" stroke="none" x="352" xml:space="preserve" y="17.8174">«interface»</text><text clip-path="url(#clipPath6)" font-family="sans-serif" font-size="14px" stroke="none" x="341" xml:space="preserve" y="33.6348">PersistenceAPI</text></g><g fill="rgb(255,255,255)" fill-opacity="0" stroke="rgb(255,255,255)" stroke-opacity="0" transform="translate(210,30)"><path clip-path="url(#clipPath7)" d="M0.5 0.5 L324.5 0.5 L324.5 21.3174 L809 21.3174 L809 359 L0.5 359 Z" stroke="none"/></g><g transform="translate(210,30)"><path clip-path="url(#clipPath7)" d="M0.5 0.5 L324.5 0.5 L324.5 21.3174 L809 21.3174 L809 359 L0.5 359 Z" fill="none"/><path clip-path="url(#clipPath7)" d="M0.5 21.3174 L324.5 21.3174" fill="none"/><text clip-path="url(#clipPath7)" font-family="sans-serif" font-size="14px" stroke="none" x="5" xml:space="preserve" y="15.8174">Persistence</text></g><g fill="rgb(255,255,255)" fill-opacity="0" stroke="rgb(255,255,255)" stroke-opacity="0" transform="translate(300,630)"><rect clip-path="url(#clipPath4)" height="38.5" stroke="none" width="228.5" x="0.5" y="0.5"/></g><g transform="translate(300,630)"><rect clip-path="url(#clipPath4)" fill="none" height="38.5" width="228.5" x="0.5" y="0.5"/><text clip-path="url(#clipPath4)" font-family="sans-serif" font-size="14px" stroke="none" x="41" xml:space="preserve" y="17.8174">BusinessLogicAPIImpl</text></g><g fill="rgb(0,255,0)" fill-opacity="0.4902" stroke="rgb(0,255,0)" stroke-opacity="0.4902" transform="translate(220,680)"><rect clip-path="url(#clipPath5)" height="38.5" stroke="none" width="308.5" x="0.5" y="0.5"/></g><g transform="translate(220,680)"><rect clip-path="url(#clipPath5)" fill="none" height="38.5" width="308.5" x="0.5" y="0.5"/><text clip-path="url(#clipPath5)" font-family="sans-serif" font-size="14px" stroke="none" x="117" xml:space="preserve" y="17.8174">«interface»</text><text clip-path="url(#clipPath5)" font-family="sans-serif" font-size="14px" stroke="none" x="83" xml:space="preserve" y="33.6348">BusinessLogicFactory</text></g><g fill="rgb(255,255,255)" fill-opacity="0" stroke="rgb(255,255,255)" stroke-opacity="0" transform="translate(40,120)"><rect clip-path="url(#clipPath8)" height="28.5" stroke="none" width="98.5" x="0.5" y="0.5"/></g><g transform="translate(40,120)"><rect clip-path="url(#clipPath8)" fill="none" height="28.5" width="98.5" x="0.5" y="0.5"/><text clip-path="url(#clipPath8)" font-family="sans-serif" font-size="14px" stroke="none" x="33" xml:space="preserve" y="17.8174">Main</text></g><g fill="rgb(255,255,255)" fill-opacity="0" stroke="rgb(255,255,255)" stroke-opacity="0" transform="translate(30,80)"><path clip-path="url(#clipPath9)" d="M0.5 0.5 L81.6895 0.5 L81.6895 21.3174 L139 21.3174 L139 759 L0.5 759 Z" stroke="none"/></g><g transform="translate(30,80)"><path clip-path="url(#clipPath9)" d="M0.5 0.5 L81.6895 0.5 L81.6895 21.3174 L139 21.3174 L139 759 L0.5 759 Z" fill="none"/><path clip-path="url(#clipPath9)" d="M0.5 21.3174 L81.6895 21.3174" fill="none"/><text clip-path="url(#clipPath9)" font-family="sans-serif" font-size="14px" stroke="none" x="5" xml:space="preserve" y="15.8174">Assembler</text></g><g fill="rgb(255,255,255)" fill-opacity="0" stroke="rgb(255,255,255)" stroke-opacity="0" transform="translate(1120,420)"><rect clip-path="url(#clipPath10)" height="128.5" stroke="none" width="148.5" x="0.5" y="0.5"/></g><g transform="translate(1120,420)"><rect clip-path="url(#clipPath10)" fill="none" height="128.5" width="148.5" x="0.5" y="0.5"/><text clip-path="url(#clipPath10)" font-family="sans-serif" font-size="14px" stroke="none" x="26" xml:space="preserve" y="17.8174">CustomerData</text></g><g fill="rgb(255,255,255)" fill-opacity="0" stroke="rgb(255,255,255)" stroke-opacity="0" transform="translate(1100,180)"><path clip-path="url(#clipPath11)" d="M0.5 0.5 L95.7852 0.5 L95.7852 37.1348 L179 37.1348 L179 589 L0.5 589 Z" stroke="none"/></g><g transform="translate(1100,180)"><path clip-path="url(#clipPath11)" d="M0.5 0.5 L95.7852 0.5 L95.7852 37.1348 L179 37.1348 L179 589 L0.5 589 Z" fill="none"/><path clip-path="url(#clipPath11)" d="M0.5 37.1348 L95.7852 37.1348" fill="none"/><text clip-path="url(#clipPath11)" font-family="sans-serif" font-size="14px" stroke="none" x="5" xml:space="preserve" y="15.8174">DataRecords</text></g><g fill="rgb(0,255,0)" fill-opacity="0.4902" stroke="rgb(0,255,0)" stroke-opacity="0.4902" transform="translate(220,550)"><rect clip-path="url(#clipPath6)" height="48.5" stroke="none" width="778.5" x="0.5" y="0.5"/></g><g transform="translate(220,550)"><rect clip-path="url(#clipPath6)" fill="none" height="48.5" width="778.5" x="0.5" y="0.5"/><text clip-path="url(#clipPath6)" font-family="sans-serif" font-size="14px" stroke="none" x="352" xml:space="preserve" y="17.8174">«interface»</text><text clip-path="url(#clipPath6)" font-family="sans-serif" font-size="14px" stroke="none" x="331" xml:space="preserve" y="33.6348">BusinessLogicAPI</text></g><g fill="rgb(255,255,255)" fill-opacity="0" stroke="rgb(255,255,255)" stroke-opacity="0" transform="translate(860,800)"><rect clip-path="url(#clipPath12)" height="28.5" stroke="none" width="148.5" x="0.5" y="0.5"/></g><g transform="translate(860,800)"><rect clip-path="url(#clipPath12)" fill="none" height="28.5" width="148.5" x="0.5" y="0.5"/><text clip-path="url(#clipPath12)" font-family="sans-serif" font-size="14px" stroke="none" x="9" xml:space="preserve" y="17.8174">customerView.fxml</text></g><g fill="rgb(255,255,255)" fill-opacity="0" stroke="rgb(255,255,255)" stroke-opacity="0" transform="translate(670,800)"><rect clip-path="url(#clipPath13)" height="28.5" stroke="none" width="158.5" x="0.5" y="0.5"/></g><g transform="translate(670,800)"><rect clip-path="url(#clipPath13)" fill="none" height="28.5" width="158.5" x="0.5" y="0.5"/><text clip-path="url(#clipPath13)" font-family="sans-serif" font-size="14px" stroke="none" x="12" xml:space="preserve" y="17.8174">CustomerController</text></g><g fill="rgb(255,255,255)" fill-opacity="0" stroke="rgb(255,255,255)" stroke-opacity="0" transform="translate(510,800)"><rect clip-path="url(#clipPath8)" height="28.5" stroke="none" width="98.5" x="0.5" y="0.5"/></g><g transform="translate(510,800)"><rect clip-path="url(#clipPath8)" fill="none" height="28.5" width="98.5" x="0.5" y="0.5"/><text clip-path="url(#clipPath8)" font-family="sans-serif" font-size="14px" stroke="none" x="24" xml:space="preserve" y="17.8174">GUIApp</text></g><g fill="rgb(255,255,255)" fill-opacity="0" stroke="rgb(255,255,255)" stroke-opacity="0" transform="translate(210,760)"><path clip-path="url(#clipPath14)" d="M0.5 0.5 L324.5 0.5 L324.5 21.3174 L809 21.3174 L809 79 L0.5 79 Z" stroke="none"/></g><g transform="translate(210,760)"><path clip-path="url(#clipPath14)" d="M0.5 0.5 L324.5 0.5 L324.5 21.3174 L809 21.3174 L809 79 L0.5 79 Z" fill="none"/><path clip-path="url(#clipPath14)" d="M0.5 21.3174 L324.5 21.3174" fill="none"/><text clip-path="url(#clipPath14)" font-family="sans-serif" font-size="14px" stroke="none" x="5" xml:space="preserve" y="15.8174">GUI</text></g><g fill="rgb(255,255,255)" fill-opacity="0" stroke="rgb(255,255,255)" stroke-opacity="0" transform="translate(580,500)"><rect clip-path="url(#clipPath15)" height="28.5" stroke="none" width="178.5" x="0.5" y="0.5"/></g><g transform="translate(580,500)"><rect clip-path="url(#clipPath15)" fill="none" height="28.5" width="178.5" x="0.5" y="0.5"/><text clip-path="url(#clipPath15)" font-family="sans-serif" font-size="14px" stroke="none" x="27" xml:space="preserve" y="17.8174">CustomerManager</text></g><g fill="rgb(255,255,255)" fill-opacity="0" stroke="rgb(255,255,255)" stroke-opacity="0" transform="translate(870,500)"><rect clip-path="url(#clipPath16)" height="28.5" stroke="none" width="128.5" x="0.5" y="0.5"/></g><g transform="translate(870,500)"><rect clip-path="url(#clipPath16)" fill="none" height="28.5" width="128.5" x="0.5" y="0.5"/><text clip-path="url(#clipPath16)" font-family="sans-serif" font-size="14px" stroke="none" x="32" xml:space="preserve" y="17.8174">Customer</text></g><g fill="rgb(255,255,255)" fill-opacity="0" stroke="rgb(255,255,255)" stroke-opacity="0" transform="translate(210,450)"><path clip-path="url(#clipPath17)" d="M0.5 0.5 L324.5 0.5 L324.5 37.1348 L809 37.1348 L809 289 L0.5 289 Z" stroke="none"/></g><g transform="translate(210,450)"><path clip-path="url(#clipPath17)" d="M0.5 0.5 L324.5 0.5 L324.5 37.1348 L809 37.1348 L809 289 L0.5 289 Z" fill="none"/><path clip-path="url(#clipPath17)" d="M0.5 37.1348 L324.5 37.1348" fill="none"/><text clip-path="url(#clipPath17)" font-family="sans-serif" font-size="14px" stroke="none" x="5" xml:space="preserve" y="15.8174">           BusinessLogic</text></g><g fill="rgb(255,255,255)" fill-opacity="0" stroke="rgb(255,255,255)" stroke-opacity="0"><path clip-path="url(#clipPath18)" d="M0.5 0.5 L536.5 0.5 L536.5 21.3174 L1339 21.3174 L1339 859 L0.5 859 Z" stroke="none"/></g><g><path clip-path="url(#clipPath18)" d="M0.5 0.5 L536.5 0.5 L536.5 21.3174 L1339 21.3174 L1339 859 L0.5 859 Z" fill="none"/><path clip-path="url(#clipPath18)" d="M0.5 21.3174 L536.5 21.3174" fill="none"/><text clip-path="url(#clipPath18)" font-family="sans-serif" font-size="14px" stroke="none" x="5" xml:space="preserve" y="15.8174">AirLine Information System</text></g><g stroke-dasharray="8,5" stroke-linecap="butt" stroke-miterlimit="5" transform="translate(710,460)"><path clip-path="url(#clipPath19)" d="M409.5 10.5 L10.5 10.5" fill="none"/><path clip-path="url(#clipPath19)" d="M10.5 10.5 L10.5 40.5" fill="none"/><path clip-path="url(#clipPath19)" d="M398.7417 4 L410 10.5 L398.7417 17" fill="none" stroke-dasharray="none" stroke-linecap="square" stroke-miterlimit="10"/></g><g stroke-dasharray="8,5" stroke-linecap="butt" stroke-miterlimit="5" transform="translate(260,590)"><path clip-path="url(#clipPath20)" d="M10.5 90.5 L10.5 11.5" fill="none"/><path clip-path="url(#clipPath20)" d="M17 22.2583 L10.5 11 L4 22.2583" fill="none" stroke-dasharray="none" stroke-linecap="square" stroke-miterlimit="10"/></g><g stroke-dasharray="8,5" stroke-linecap="butt" stroke-miterlimit="5" transform="translate(650,520)"><path clip-path="url(#clipPath21)" d="M10.5 30.5 L10.5 11.5" fill="none"/><path clip-path="url(#clipPath21)" d="M17 22.2583 L10.5 11 L4 22.2583" fill="none" stroke-dasharray="none" stroke-linecap="square" stroke-miterlimit="10"/></g><g stroke-dasharray="8,5" stroke-linecap="butt" stroke-miterlimit="5" transform="translate(260,230)"><path clip-path="url(#clipPath22)" d="M10.5 100.5 L10.5 11.5" fill="none"/><path clip-path="url(#clipPath22)" d="M17 22.2583 L10.5 11 L4 22.2583" fill="none" stroke-dasharray="none" stroke-linecap="square" stroke-miterlimit="10"/></g><g stroke-dasharray="8,5" stroke-linecap="butt" stroke-miterlimit="5" transform="translate(620,90)"><path clip-path="url(#clipPath22)" d="M10.5 100.5 L10.5 11.5" fill="none"/><path clip-path="url(#clipPath22)" d="M17 22.2583 L10.5 11 L4 22.2583" fill="none" stroke-dasharray="none" stroke-linecap="square" stroke-miterlimit="10"/></g><g stroke-dasharray="8,5" stroke-linecap="butt" stroke-miterlimit="5" transform="translate(850,160)"><path clip-path="url(#clipPath23)" d="M10.5 20.5 L10.5 10.5" fill="none"/></g><g stroke-dasharray="8,5" stroke-linecap="butt" stroke-miterlimit="5" transform="translate(670,90)"><path clip-path="url(#clipPath24)" d="M449.5 340.5 L380.5 340.5" fill="none"/><path clip-path="url(#clipPath24)" d="M380.5 340.5 L380.5 90.5" fill="none"/><path clip-path="url(#clipPath24)" d="M380.5 90.5 L10.5 90.5" fill="none"/><path clip-path="url(#clipPath24)" d="M10.5 90.5 L10.5 10.5" fill="none"/><path clip-path="url(#clipPath24)" d="M438.7417 334 L450 340.5 L438.7417 347" fill="none" stroke-dasharray="none" stroke-linecap="square" stroke-miterlimit="10"/></g><g stroke-dasharray="8,5" stroke-linecap="butt" stroke-miterlimit="5" transform="translate(860,230)"><path clip-path="url(#clipPath25)" d="M259.5 220.5 L10.5 220.5" fill="none"/><path clip-path="url(#clipPath25)" d="M10.5 220.5 L10.5 10.5" fill="none"/><path clip-path="url(#clipPath25)" d="M248.7417 214 L260 220.5 L248.7417 227" fill="none" stroke-dasharray="none" stroke-linecap="square" stroke-miterlimit="10"/></g><g transform="translate(520,230)"><path clip-path="url(#clipPath26)" d="M20.5 11.5 L20.5 410.5" fill="none"/><path clip-path="url(#clipPath26)" d="M20.5 410.5 L10.5 410.5" fill="none"/><path clip-path="url(#clipPath26)" d="M14 22.2583 L20.5 11 L27 22.2583" fill="none"/></g><g transform="translate(650,90)"><path clip-path="url(#clipPath27)" d="M10.5 410.5 L10.5 11.5" fill="none"/><path clip-path="url(#clipPath27)" d="M17 22.2583 L10.5 11 L4 22.2583" fill="none"/></g><g stroke-dasharray="8,5" stroke-linecap="butt" stroke-miterlimit="5" transform="translate(760,90)"><path clip-path="url(#clipPath28)" d="M10.5 11.5 L10.5 40.5" fill="none"/><path clip-path="url(#clipPath28)" d="M4 22.2583 L10.5 11 L17 22.2583 Z" fill="white" stroke="none"/><path clip-path="url(#clipPath28)" d="M4 22.2583 L10.5 11 L17 22.2583 Z" fill="none" stroke-dasharray="none" stroke-linecap="square" stroke-miterlimit="10"/></g><g stroke-dasharray="8,5" stroke-linecap="butt" stroke-miterlimit="5" transform="translate(70,140)"><path clip-path="url(#clipPath29)" d="M40.5 10.5 L40.5 210.5" fill="none"/><path clip-path="url(#clipPath29)" d="M40.5 210.5 L149.5 210.5" fill="none"/><path clip-path="url(#clipPath29)" d="M138.7417 217 L150 210.5 L138.7417 204" fill="none" stroke-dasharray="none" stroke-linecap="square" stroke-miterlimit="10"/></g><g font-family="sans-serif" font-size="14px" transform="translate(70,140)"><text clip-path="url(#clipPath29)" stroke="none" x="5.7158" xml:space="preserve" y="223.8174">«gets Persistence»</text></g><g stroke-dasharray="8,5" stroke-linecap="butt" stroke-miterlimit="5" transform="translate(410,230)"><path clip-path="url(#clipPath28)" d="M10.5 11.5 L10.5 40.5" fill="none"/><path clip-path="url(#clipPath28)" d="M4 22.2583 L10.5 11 L17 22.2583 Z" fill="white" stroke="none"/><path clip-path="url(#clipPath28)" d="M4 22.2583 L10.5 11 L17 22.2583 Z" fill="none" stroke-dasharray="none" stroke-linecap="square" stroke-miterlimit="10"/></g><g stroke-dasharray="8,5" stroke-linecap="butt" stroke-miterlimit="5" transform="translate(540,490)"><path clip-path="url(#clipPath30)" d="M39.5 20.5 L10.5 20.5" fill="none"/><path clip-path="url(#clipPath30)" d="M28.7417 14 L40 20.5 L28.7417 27" fill="none" stroke-dasharray="none" stroke-linecap="square" stroke-miterlimit="10"/></g><g stroke-dasharray="8,5" stroke-linecap="butt" stroke-miterlimit="5" transform="translate(520,630)"><path clip-path="url(#clipPath31)" d="M30.5 20.5 L10.5 20.5" fill="none"/></g><g stroke-dasharray="8,5" stroke-linecap="butt" stroke-miterlimit="5" transform="translate(540,500)"><path clip-path="url(#clipPath32)" d="M10.5 10.5 L10.5 150.5" fill="none"/></g><g stroke-dasharray="8,5" stroke-linecap="butt" stroke-miterlimit="5" transform="translate(990,550)"><path clip-path="url(#clipPath33)" d="M80.5 20.5 L10.5 20.5" fill="none"/></g><g stroke-dasharray="8,5" stroke-linecap="butt" stroke-miterlimit="5" transform="translate(60,790)"><path clip-path="url(#clipPath34)" d="M10.5 20.5 L449.5 20.5" fill="none"/><path clip-path="url(#clipPath34)" d="M438.7417 27 L450 20.5 L438.7417 14" fill="none" stroke-dasharray="none" stroke-linecap="square" stroke-miterlimit="10"/></g><g font-family="sans-serif" font-size="14px" transform="translate(60,790)"><text clip-path="url(#clipPath34)" stroke="none" x="150.9321" xml:space="preserve" y="16">«injects BusinessLogic»</text></g><g stroke-dasharray="8,5" stroke-linecap="butt" stroke-miterlimit="5" transform="translate(60,140)"><path clip-path="url(#clipPath35)" d="M10.5 10.5 L10.5 670.5" fill="none"/></g><g stroke-dasharray="8,5" stroke-linecap="butt" stroke-miterlimit="5" transform="translate(80,680)"><path clip-path="url(#clipPath36)" d="M10.5 20.5 L139.5 20.5" fill="none"/><path clip-path="url(#clipPath36)" d="M128.7417 27 L140 20.5 L128.7417 14" fill="none" stroke-dasharray="none" stroke-linecap="square" stroke-miterlimit="10"/></g><g font-family="sans-serif" font-size="14px" transform="translate(80,680)"><text clip-path="url(#clipPath36)" stroke="none" x="5.1401" xml:space="preserve" y="16">«injects Persistence»</text></g><g stroke-dasharray="8,5" stroke-linecap="butt" stroke-miterlimit="5" transform="translate(80,140)"><path clip-path="url(#clipPath37)" d="M10.5 10.5 L10.5 560.5" fill="none"/></g><g stroke-dasharray="8,5" stroke-linecap="butt" stroke-miterlimit="5" transform="translate(410,590)"><path clip-path="url(#clipPath28)" d="M10.5 11.5 L10.5 40.5" fill="none"/><path clip-path="url(#clipPath28)" d="M4 22.2583 L10.5 11 L17 22.2583 Z" fill="white" stroke="none"/><path clip-path="url(#clipPath28)" d="M4 22.2583 L10.5 11 L17 22.2583 Z" fill="none" stroke-dasharray="none" stroke-linecap="square" stroke-miterlimit="10"/></g><g stroke-dasharray="8,5" stroke-linecap="butt" stroke-miterlimit="5" transform="translate(760,740)"><path clip-path="url(#clipPath38)" d="M10.5 10.5 L10.5 60.5" fill="none"/></g><g stroke-dasharray="8,5" stroke-linecap="butt" stroke-miterlimit="5" transform="translate(760,730)"><path clip-path="url(#clipPath39)" d="M310.5 20.5 L10.5 20.5" fill="none"/></g><g stroke-dasharray="8,5" stroke-linecap="butt" stroke-miterlimit="5" transform="translate(1060,520)"><path clip-path="url(#clipPath40)" d="M10.5 20.5 L59.5 20.5" fill="none"/><path clip-path="url(#clipPath40)" d="M48.7417 27 L60 20.5 L48.7417 14" fill="none" stroke-dasharray="none" stroke-linecap="square" stroke-miterlimit="10"/></g><g stroke-dasharray="8,5" stroke-linecap="butt" stroke-miterlimit="5" transform="translate(1060,530)"><path clip-path="url(#clipPath41)" d="M10.5 10.5 L10.5 220.5" fill="none"/></g><g transform="translate(730,520)"><path clip-path="url(#clipPath42)" d="M10.5 280.5 L10.5 11.5" fill="none"/><path clip-path="url(#clipPath42)" d="M17 22.2583 L10.5 11 L4 22.2583" fill="none"/></g><g transform="translate(560,590)"><path clip-path="url(#clipPath43)" d="M10.5 210.5 L10.5 11.5" fill="none"/><path clip-path="url(#clipPath43)" d="M17 22.2583 L10.5 11 L4 22.2583" fill="none"/></g><g transform="translate(990,490)"><path clip-path="url(#clipPath44)" d="M129.5 20.5 L10.5 20.5" fill="none"/><path clip-path="url(#clipPath44)" d="M118.7417 14 L130 20.5 L118.7417 27" fill="none"/></g><g stroke-dasharray="8,5" stroke-linecap="butt" stroke-miterlimit="5" transform="translate(820,790)"><path clip-path="url(#clipPath30)" d="M40.5 20.5 L10.5 20.5" fill="none"/></g><g stroke-dasharray="8,5" stroke-linecap="butt" stroke-miterlimit="5" transform="translate(600,790)"><path clip-path="url(#clipPath45)" d="M69.5 20.5 L10.5 20.5" fill="none"/><path clip-path="url(#clipPath45)" d="M58.7417 14 L70 20.5 L58.7417 27" fill="none" stroke-dasharray="none" stroke-linecap="square" stroke-miterlimit="10"/></g><g stroke-dasharray="8,5" stroke-linecap="butt" stroke-miterlimit="5" transform="translate(750,490)"><path clip-path="url(#clipPath46)" d="M119.5 20.5 L10.5 20.5" fill="none"/><path clip-path="url(#clipPath46)" d="M108.7417 14 L120 20.5 L108.7417 27" fill="none" stroke-dasharray="none" stroke-linecap="square" stroke-miterlimit="10"/></g></g><style>* {
    color: #000
    }
@media (prefers-color-scheme: dark) {
    * {
        color: #fff
        }
    svg {
        filter: invert(100%)
        }
    }</style></svg>