<?xml version="1.0" encoding="utf-8"?>
<!DOCTYPE svg PUBLIC "-//W3C//DTD SVG 1.0//EN" "http://www.w3.org/TR/2001/REC-SVG-20010904/DTD/svg10.dtd">
<svg color-interpolation="auto" color-rendering="auto" fill="currentColor" fill-opacity="1" font-family="'Dialog'" font-size="12px" font-style="normal" font-weight="normal" height="690" image-rendering="auto" shape-rendering="auto" stroke="currentColor" stroke-dasharray="none" stroke-dashoffset="0" stroke-linecap="square" stroke-linejoin="miter" stroke-miterlimit="10" stroke-opacity="1" stroke-width="1" text-rendering="auto" viewBox="-20 70 1380 690" width="1380" xmlns="http://www.w3.org/2000/svg" xmlns:xlink="http://www.w3.org/1999/xlink"><!--Generated by the Batik Graphics2D SVG Generator--><defs id="genericDefs"/><g><defs id="defs1"><clipPath clipPathUnits="userSpaceOnUse" id="clipPath1"><path d="M0 0 L2147483647 0 L2147483647 2147483647 L0 2147483647 L0 0 Z"/></clipPath><clipPath clipPathUnits="userSpaceOnUse" id="clipPath2"><path d="M0 0 L0 40 L230 40 L230 0 Z"/></clipPath><clipPath clipPathUnits="userSpaceOnUse" id="clipPath3"><path d="M0 0 L0 40 L310 40 L310 0 Z"/></clipPath><clipPath clipPathUnits="userSpaceOnUse" id="clipPath4"><path d="M0 0 L0 30 L100 30 L100 0 Z"/></clipPath><clipPath clipPathUnits="userSpaceOnUse" id="clipPath5"><path d="M0 0 L0 580 L140 580 L140 0 Z"/></clipPath><clipPath clipPathUnits="userSpaceOnUse" id="clipPath6"><path d="M0 0 L0 90 L150 90 L150 0 Z"/></clipPath><clipPath clipPathUnits="userSpaceOnUse" id="clipPath7"><path d="M0 0 L0 590 L180 590 L180 0 Z"/></clipPath><clipPath clipPathUnits="userSpaceOnUse" id="clipPath8"><path d="M0 0 L0 50 L780 50 L780 0 Z"/></clipPath><clipPath clipPathUnits="userSpaceOnUse" id="clipPath9"><path d="M0 0 L0 30 L140 30 L140 0 Z"/></clipPath><clipPath clipPathUnits="userSpaceOnUse" id="clipPath10"><path d="M0 0 L0 30 L160 30 L160 0 Z"/></clipPath><clipPath clipPathUnits="userSpaceOnUse" id="clipPath11"><path d="M0 0 L0 90 L810 90 L810 0 Z"/></clipPath><clipPath clipPathUnits="userSpaceOnUse" id="clipPath12"><path d="M0 0 L0 30 L120 30 L120 0 Z"/></clipPath><clipPath clipPathUnits="userSpaceOnUse" id="clipPath13"><path d="M0 0 L0 330 L810 330 L810 0 Z"/></clipPath><clipPath clipPathUnits="userSpaceOnUse" id="clipPath14"><path d="M0 0 L0 650 L1340 650 L1340 0 Z"/></clipPath><clipPath clipPathUnits="userSpaceOnUse" id="clipPath15"><path d="M0 0 L0 120 L30 120 L30 0 Z"/></clipPath><clipPath clipPathUnits="userSpaceOnUse" id="clipPath16"><path d="M0 0 L0 40 L160 40 L160 0 Z"/></clipPath><clipPath clipPathUnits="userSpaceOnUse" id="clipPath17"><path d="M0 0 L0 280 L30 280 L30 0 Z"/></clipPath><clipPath clipPathUnits="userSpaceOnUse" id="clipPath18"><path d="M0 0 L0 40 L60 40 L60 0 Z"/></clipPath><clipPath clipPathUnits="userSpaceOnUse" id="clipPath19"><path d="M0 0 L0 40 L50 40 L50 0 Z"/></clipPath><clipPath clipPathUnits="userSpaceOnUse" id="clipPath20"><path d="M0 0 L0 180 L30 180 L30 0 Z"/></clipPath><clipPath clipPathUnits="userSpaceOnUse" id="clipPath21"><path d="M0 0 L0 40 L100 40 L100 0 Z"/></clipPath><clipPath clipPathUnits="userSpaceOnUse" id="clipPath22"><path d="M0 0 L0 50 L470 50 L470 0 Z"/></clipPath><clipPath clipPathUnits="userSpaceOnUse" id="clipPath23"><path d="M0 0 L0 480 L30 480 L30 0 Z"/></clipPath><clipPath clipPathUnits="userSpaceOnUse" id="clipPath24"><path d="M0 0 L0 370 L30 370 L30 0 Z"/></clipPath><clipPath clipPathUnits="userSpaceOnUse" id="clipPath25"><path d="M0 0 L0 70 L30 70 L30 0 Z"/></clipPath><clipPath clipPathUnits="userSpaceOnUse" id="clipPath26"><path d="M0 0 L0 60 L30 60 L30 0 Z"/></clipPath><clipPath clipPathUnits="userSpaceOnUse" id="clipPath27"><path d="M0 0 L0 40 L330 40 L330 0 Z"/></clipPath><clipPath clipPathUnits="userSpaceOnUse" id="clipPath28"><path d="M0 0 L0 40 L80 40 L80 0 Z"/></clipPath><clipPath clipPathUnits="userSpaceOnUse" id="clipPath29"><path d="M0 0 L0 310 L30 310 L30 0 Z"/></clipPath><clipPath clipPathUnits="userSpaceOnUse" id="clipPath30"><path d="M0 0 L0 240 L30 240 L30 0 Z"/></clipPath><clipPath clipPathUnits="userSpaceOnUse" id="clipPath31"><path d="M0 0 L0 40 L490 40 L490 0 Z"/></clipPath><clipPath clipPathUnits="userSpaceOnUse" id="clipPath32"><path d="M0 0 L0 50 L30 50 L30 0 Z"/></clipPath><clipPath clipPathUnits="userSpaceOnUse" id="clipPath33"><path d="M0 0 L0 40 L70 40 L70 0 Z"/></clipPath></defs><g fill="rgb(255,255,255)" fill-opacity="0" stroke="rgb(255,255,255)" stroke-opacity="0" transform="translate(300,490)"><rect clip-path="url(#clipPath2)" height="38.5" stroke="none" width="228.5" x="0.5" y="0.5"/></g><g transform="translate(300,490)"><rect clip-path="url(#clipPath2)" fill="none" height="38.5" width="228.5" x="0.5" y="0.5"/><text clip-path="url(#clipPath2)" font-family="sans-serif" font-size="14px" stroke="none" x="41" xml:space="preserve" y="17.8174">BusinessLogicAPIImpl</text></g><g fill="rgb(0,255,0)" fill-opacity="0.4902" stroke="rgb(0,255,0)" stroke-opacity="0.4902" transform="translate(220,540)"><rect clip-path="url(#clipPath3)" height="38.5" stroke="none" width="308.5" x="0.5" y="0.5"/></g><g transform="translate(220,540)"><rect clip-path="url(#clipPath3)" fill="none" height="38.5" width="308.5" x="0.5" y="0.5"/><text clip-path="url(#clipPath3)" font-family="sans-serif" font-size="14px" stroke="none" x="117" xml:space="preserve" y="17.8174">«interface»</text><text clip-path="url(#clipPath3)" font-family="sans-serif" font-size="14px" stroke="none" x="83" xml:space="preserve" y="33.6348">BusinessLogicFactory</text></g><g fill="rgb(255,255,255)" fill-opacity="0" stroke="rgb(255,255,255)" stroke-opacity="0" transform="translate(40,190)"><rect clip-path="url(#clipPath4)" height="28.5" stroke="none" width="98.5" x="0.5" y="0.5"/></g><g transform="translate(40,190)"><rect clip-path="url(#clipPath4)" fill="none" height="28.5" width="98.5" x="0.5" y="0.5"/><text clip-path="url(#clipPath4)" font-family="sans-serif" font-size="14px" stroke="none" x="33" xml:space="preserve" y="17.8174">Main</text></g><g fill="rgb(255,255,255)" fill-opacity="0" stroke="rgb(255,255,255)" stroke-opacity="0" transform="translate(20,140)"><path clip-path="url(#clipPath5)" d="M0.5 0.5 L81.6895 0.5 L81.6895 37.1348 L139 37.1348 L139 579 L0.5 579 Z" stroke="none"/></g><g transform="translate(20,140)"><path clip-path="url(#clipPath5)" d="M0.5 0.5 L81.6895 0.5 L81.6895 37.1348 L139 37.1348 L139 579 L0.5 579 Z" fill="none"/><path clip-path="url(#clipPath5)" d="M0.5 37.1348 L81.6895 37.1348" fill="none"/><text clip-path="url(#clipPath5)" font-family="sans-serif" font-size="14px" stroke="none" x="5" xml:space="preserve" y="15.8174">Assembler</text></g><g fill="rgb(255,255,255)" fill-opacity="0" stroke="rgb(255,255,255)" stroke-opacity="0" transform="translate(1120,310)"><rect clip-path="url(#clipPath6)" height="88.5" stroke="none" width="148.5" x="0.5" y="0.5"/></g><g transform="translate(1120,310)"><rect clip-path="url(#clipPath6)" fill="none" height="88.5" width="148.5" x="0.5" y="0.5"/><text clip-path="url(#clipPath6)" font-family="sans-serif" font-size="14px" stroke="none" x="26" xml:space="preserve" y="17.8174">CustomerData</text></g><g fill="rgb(255,255,255)" fill-opacity="0" stroke="rgb(255,255,255)" stroke-opacity="0" transform="translate(1100,130)"><path clip-path="url(#clipPath7)" d="M0.5 0.5 L95.7852 0.5 L95.7852 37.1348 L179 37.1348 L179 589 L0.5 589 Z" stroke="none"/></g><g transform="translate(1100,130)"><path clip-path="url(#clipPath7)" d="M0.5 0.5 L95.7852 0.5 L95.7852 37.1348 L179 37.1348 L179 589 L0.5 589 Z" fill="none"/><path clip-path="url(#clipPath7)" d="M0.5 37.1348 L95.7852 37.1348" fill="none"/><text clip-path="url(#clipPath7)" font-family="sans-serif" font-size="14px" stroke="none" x="5" xml:space="preserve" y="15.8174">DataRecords</text></g><g fill="rgb(0,255,0)" fill-opacity="0.4902" stroke="rgb(0,255,0)" stroke-opacity="0.4902" transform="translate(220,400)"><rect clip-path="url(#clipPath8)" height="48.5" stroke="none" width="778.5" x="0.5" y="0.5"/></g><g transform="translate(220,400)"><rect clip-path="url(#clipPath8)" fill="none" height="48.5" width="778.5" x="0.5" y="0.5"/><text clip-path="url(#clipPath8)" font-family="sans-serif" font-size="14px" stroke="none" x="352" xml:space="preserve" y="17.8174">«interface»</text><text clip-path="url(#clipPath8)" font-family="sans-serif" font-size="14px" stroke="none" x="331" xml:space="preserve" y="33.6348">BusinessLogicAPI</text></g><g fill="rgb(255,255,255)" fill-opacity="0" stroke="rgb(255,255,255)" stroke-opacity="0" transform="translate(860,660)"><rect clip-path="url(#clipPath9)" height="28.5" stroke="none" width="138.5" x="0.5" y="0.5"/></g><g transform="translate(860,660)"><rect clip-path="url(#clipPath9)" fill="none" height="28.5" width="138.5" x="0.5" y="0.5"/><text clip-path="url(#clipPath9)" font-family="sans-serif" font-size="14px" stroke="none" x="4" xml:space="preserve" y="17.8174">customerView.fxml</text></g><g fill="rgb(255,255,255)" fill-opacity="0" stroke="rgb(255,255,255)" stroke-opacity="0" transform="translate(660,660)"><rect clip-path="url(#clipPath10)" height="28.5" stroke="none" width="158.5" x="0.5" y="0.5"/></g><g transform="translate(660,660)"><rect clip-path="url(#clipPath10)" fill="none" height="28.5" width="158.5" x="0.5" y="0.5"/><text clip-path="url(#clipPath10)" font-family="sans-serif" font-size="14px" stroke="none" x="12" xml:space="preserve" y="17.8174">CustomerController</text></g><g fill="rgb(255,255,255)" fill-opacity="0" stroke="rgb(255,255,255)" stroke-opacity="0" transform="translate(510,660)"><rect clip-path="url(#clipPath4)" height="28.5" stroke="none" width="98.5" x="0.5" y="0.5"/></g><g transform="translate(510,660)"><rect clip-path="url(#clipPath4)" fill="none" height="28.5" width="98.5" x="0.5" y="0.5"/><text clip-path="url(#clipPath4)" font-family="sans-serif" font-size="14px" stroke="none" x="24" xml:space="preserve" y="17.8174">GUIApp</text></g><g fill="rgb(255,255,255)" fill-opacity="0" stroke="rgb(255,255,255)" stroke-opacity="0" transform="translate(210,630)"><path clip-path="url(#clipPath11)" d="M0.5 0.5 L324.5 0.5 L324.5 21.3174 L809 21.3174 L809 89 L0.5 89 Z" stroke="none"/></g><g transform="translate(210,630)"><path clip-path="url(#clipPath11)" d="M0.5 0.5 L324.5 0.5 L324.5 21.3174 L809 21.3174 L809 89 L0.5 89 Z" fill="none"/><path clip-path="url(#clipPath11)" d="M0.5 21.3174 L324.5 21.3174" fill="none"/><text clip-path="url(#clipPath11)" font-family="sans-serif" font-size="14px" stroke="none" x="5" xml:space="preserve" y="15.8174">GUI</text></g><g fill="rgb(255,255,255)" fill-opacity="0" stroke="rgb(255,255,255)" stroke-opacity="0" transform="translate(580,350)"><rect clip-path="url(#clipPath10)" height="28.5" stroke="none" width="158.5" x="0.5" y="0.5"/></g><g transform="translate(580,350)"><rect clip-path="url(#clipPath10)" fill="none" height="28.5" width="158.5" x="0.5" y="0.5"/><text clip-path="url(#clipPath10)" font-family="sans-serif" font-size="14px" stroke="none" x="17" xml:space="preserve" y="17.8174">CustomerManager</text></g><g fill="rgb(255,255,255)" fill-opacity="0" stroke="rgb(255,255,255)" stroke-opacity="0" transform="translate(870,350)"><rect clip-path="url(#clipPath12)" height="28.5" stroke="none" width="118.5" x="0.5" y="0.5"/></g><g transform="translate(870,350)"><rect clip-path="url(#clipPath12)" fill="none" height="28.5" width="118.5" x="0.5" y="0.5"/><text clip-path="url(#clipPath12)" font-family="sans-serif" font-size="14px" stroke="none" x="27" xml:space="preserve" y="17.8174">Customer</text></g><g fill="rgb(255,255,255)" fill-opacity="0" stroke="rgb(255,255,255)" stroke-opacity="0" transform="translate(210,260)"><path clip-path="url(#clipPath13)" d="M0.5 0.5 L324.5 0.5 L324.5 37.1348 L809 37.1348 L809 329 L0.5 329 Z" stroke="none"/></g><g transform="translate(210,260)"><path clip-path="url(#clipPath13)" d="M0.5 0.5 L324.5 0.5 L324.5 37.1348 L809 37.1348 L809 329 L0.5 329 Z" fill="none"/><path clip-path="url(#clipPath13)" d="M0.5 37.1348 L324.5 37.1348" fill="none"/><text clip-path="url(#clipPath13)" font-family="sans-serif" font-size="14px" stroke="none" x="5" xml:space="preserve" y="15.8174">BusinessLogic</text></g><g fill="rgb(255,255,255)" fill-opacity="0" stroke="rgb(255,255,255)" stroke-opacity="0" transform="translate(0,90)"><path clip-path="url(#clipPath14)" d="M0.5 0.5 L536.5 0.5 L536.5 21.3174 L1339 21.3174 L1339 649 L0.5 649 Z" stroke="none"/></g><g transform="translate(0,90)"><path clip-path="url(#clipPath14)" d="M0.5 0.5 L536.5 0.5 L536.5 21.3174 L1339 21.3174 L1339 649 L0.5 649 Z" fill="none"/><path clip-path="url(#clipPath14)" d="M0.5 21.3174 L536.5 21.3174" fill="none"/><text clip-path="url(#clipPath14)" font-family="sans-serif" font-size="14px" stroke="none" x="5" xml:space="preserve" y="15.8174">AirLine Information System</text></g><g stroke-dasharray="8,5" stroke-linecap="butt" stroke-miterlimit="5" transform="translate(250,440)"><path clip-path="url(#clipPath15)" d="M10.5 11.5 L10.5 100.5" fill="none"/><path clip-path="url(#clipPath15)" d="M4 22.2583 L10.5 11 L17 22.2583" fill="none" stroke-dasharray="none" stroke-linecap="square" stroke-miterlimit="10"/></g><g transform="translate(980,340)"><path clip-path="url(#clipPath16)" d="M139.5 20.5 L10.5 20.5" fill="none"/><path clip-path="url(#clipPath16)" d="M128.7417 14 L140 20.5 L128.7417 27" fill="none"/></g><g stroke-dasharray="8,5" stroke-linecap="butt" stroke-miterlimit="5" transform="translate(1060,370)"><path clip-path="url(#clipPath17)" d="M10.5 10.5 L10.5 260.5" fill="none"/></g><g stroke-dasharray="8,5" stroke-linecap="butt" stroke-miterlimit="5" transform="translate(540,340)"><path clip-path="url(#clipPath18)" d="M39.5 20.5 L10.5 20.5" fill="none"/><path clip-path="url(#clipPath18)" d="M28.7417 14 L40 20.5 L28.7417 27" fill="none" stroke-dasharray="none" stroke-linecap="square" stroke-miterlimit="10"/></g><g stroke-dasharray="8,5" stroke-linecap="butt" stroke-miterlimit="5" transform="translate(520,490)"><path clip-path="url(#clipPath19)" d="M30.5 20.5 L10.5 20.5" fill="none"/></g><g stroke-dasharray="8,5" stroke-linecap="butt" stroke-miterlimit="5" transform="translate(540,350)"><path clip-path="url(#clipPath20)" d="M10.5 10.5 L10.5 160.5" fill="none"/></g><g stroke-dasharray="8,5" stroke-linecap="butt" stroke-miterlimit="5" transform="translate(990,400)"><path clip-path="url(#clipPath21)" d="M80.5 20.5 L10.5 20.5" fill="none"/></g><g stroke-dasharray="8,5" stroke-linecap="butt" stroke-miterlimit="5" transform="translate(60,650)"><path clip-path="url(#clipPath22)" d="M10.5 20.5 L449.5 20.5" fill="none"/><path clip-path="url(#clipPath22)" d="M438.7417 27 L450 20.5 L438.7417 14" fill="none" stroke-dasharray="none" stroke-linecap="square" stroke-miterlimit="10"/></g><g font-family="sans-serif" font-size="14px" transform="translate(60,650)"><text clip-path="url(#clipPath22)" stroke="none" x="150.9321" xml:space="preserve" y="16">«injects BusinessLogic»</text></g><g stroke-dasharray="8,5" stroke-linecap="butt" stroke-miterlimit="5" transform="translate(60,210)"><path clip-path="url(#clipPath23)" d="M10.5 10.5 L10.5 460.5" fill="none"/></g><g stroke-dasharray="8,5" stroke-linecap="butt" stroke-miterlimit="5" transform="translate(80,540)"><path clip-path="url(#clipPath16)" d="M10.5 20.5 L139.5 20.5" fill="none"/><path clip-path="url(#clipPath16)" d="M128.7417 27 L140 20.5 L128.7417 14" fill="none" stroke-dasharray="none" stroke-linecap="square" stroke-miterlimit="10"/></g><g stroke-dasharray="8,5" stroke-linecap="butt" stroke-miterlimit="5" transform="translate(80,210)"><path clip-path="url(#clipPath24)" d="M10.5 10.5 L10.5 350.5" fill="none"/></g><g stroke-dasharray="8,5" stroke-linecap="butt" stroke-miterlimit="5" transform="translate(410,440)"><path clip-path="url(#clipPath25)" d="M10.5 11.5 L10.5 50.5" fill="none"/><path clip-path="url(#clipPath25)" d="M4 22.2583 L10.5 11 L17 22.2583 Z" fill="white" stroke="none"/><path clip-path="url(#clipPath25)" d="M4 22.2583 L10.5 11 L17 22.2583 Z" fill="none" stroke-dasharray="none" stroke-linecap="square" stroke-miterlimit="10"/></g><g stroke-dasharray="8,5" stroke-linecap="butt" stroke-miterlimit="5" transform="translate(760,620)"><path clip-path="url(#clipPath26)" d="M10.5 10.5 L10.5 40.5" fill="none"/></g><g stroke-dasharray="8,5" stroke-linecap="butt" stroke-miterlimit="5" transform="translate(760,610)"><path clip-path="url(#clipPath27)" d="M310.5 20.5 L10.5 20.5" fill="none"/></g><g stroke-dasharray="8,5" stroke-linecap="butt" stroke-miterlimit="5" transform="translate(1060,360)"><path clip-path="url(#clipPath28)" d="M10.5 20.5 L59.5 20.5" fill="none"/><path clip-path="url(#clipPath28)" d="M48.7417 27 L60 20.5 L48.7417 14" fill="none" stroke-dasharray="none" stroke-linecap="square" stroke-miterlimit="10"/></g><g transform="translate(710,370)"><path clip-path="url(#clipPath29)" d="M10.5 290.5 L10.5 11.5" fill="none"/><path clip-path="url(#clipPath29)" d="M17 22.2583 L10.5 11 L4 22.2583" fill="none"/></g><g transform="translate(560,440)"><path clip-path="url(#clipPath30)" d="M10.5 220.5 L10.5 11.5" fill="none"/><path clip-path="url(#clipPath30)" d="M17 22.2583 L10.5 11 L4 22.2583" fill="none"/></g><g stroke-dasharray="8,5" stroke-linecap="butt" stroke-miterlimit="5" transform="translate(650,310)"><path clip-path="url(#clipPath31)" d="M469.5 20.5 L10.5 20.5" fill="none"/><path clip-path="url(#clipPath31)" d="M458.7417 14 L470 20.5 L458.7417 27" fill="none" stroke-dasharray="none" stroke-linecap="square" stroke-miterlimit="10"/></g><g stroke-dasharray="8,5" stroke-linecap="butt" stroke-miterlimit="5" transform="translate(650,320)"><path clip-path="url(#clipPath32)" d="M10.5 10.5 L10.5 30.5" fill="none"/></g><g stroke-dasharray="8,5" stroke-linecap="butt" stroke-miterlimit="5" transform="translate(810,650)"><path clip-path="url(#clipPath33)" d="M49.5 20.5 L10.5 20.5" fill="none"/><path clip-path="url(#clipPath33)" d="M38.7417 14 L50 20.5 L38.7417 27" fill="none" stroke-dasharray="none" stroke-linecap="square" stroke-miterlimit="10"/><path clip-path="url(#clipPath33)" d="M22.2583 14 L11 20.5 L22.2583 27" fill="none" stroke-dasharray="none" stroke-linecap="square" stroke-miterlimit="10"/></g><g stroke-dasharray="8,5" stroke-linecap="butt" stroke-miterlimit="5" transform="translate(600,650)"><path clip-path="url(#clipPath28)" d="M59.5 20.5 L10.5 20.5" fill="none"/><path clip-path="url(#clipPath28)" d="M48.7417 14 L60 20.5 L48.7417 27" fill="none" stroke-dasharray="none" stroke-linecap="square" stroke-miterlimit="10"/></g><g stroke-dasharray="8,5" stroke-linecap="butt" stroke-miterlimit="5" transform="translate(730,340)"><path clip-path="url(#clipPath16)" d="M139.5 20.5 L10.5 20.5" fill="none"/><path clip-path="url(#clipPath16)" d="M128.7417 14 L140 20.5 L128.7417 27" fill="none" stroke-dasharray="none" stroke-linecap="square" stroke-miterlimit="10"/></g></g><style>* {
    color: #000
    }
@media (prefers-color-scheme: dark) {
    * {
        color: #fff
        }
    svg {
        filter: invert(100%)
        }
    }</style></svg>